<?xml version="1.0" encoding="UTF-8" standalone="no"?>
<svg
   height="512px"
   style="enable-background:new 0 0 512 512;"
   version="1.1"
   viewBox="0 0 512 512"
   width="512px"
   xml:space="preserve"
   id="svg48"
   sodipodi:docname="facebook_media_social_icon.svg"
   inkscape:version="1.1 (c68e22c387, 2021-05-23)"
   xmlns:inkscape="http://www.inkscape.org/namespaces/inkscape"
   xmlns:sodipodi="http://sodipodi.sourceforge.net/DTD/sodipodi-0.dtd"
   xmlns="http://www.w3.org/2000/svg"
   xmlns:svg="http://www.w3.org/2000/svg"><defs
     id="defs52" /><sodipodi:namedview
     id="namedview50"
     pagecolor="#505050"
     bordercolor="#eeeeee"
     borderopacity="1"
     inkscape:pageshadow="0"
     inkscape:pageopacity="0"
     inkscape:pagecheckerboard="0"
     showgrid="false"
     inkscape:zoom="1.625"
     inkscape:cx="111.07692"
     inkscape:cy="234.76923"
     inkscape:window-width="1920"
     inkscape:window-height="1017"
     inkscape:window-x="-8"
     inkscape:window-y="-8"
     inkscape:window-maximized="1"
     inkscape:current-layer="svg48" /><g
     id="social__x2C__media__x2C__social_media__x2C___facebook__x2C_"><g
       id="g44"><g
         id="g10"><g
           id="g8" /></g><g
         id="g34"><g
           id="g16"><g
             id="g14" /></g><g
           id="g20" /><g
           id="g24" /><g
           id="g28" /><g
           id="g32" /></g><g
         id="g42"><path
           d="M212.084,426.134c-3.034,0-5.488-2.455-5.488-5.488V261.488h-27.441     c-3.034,0-5.488-2.455-5.488-5.488v-65.858c0-3.033,2.455-5.488,5.488-5.488h27.173v-24.268c0-36.027,19.648-74.52,74.788-74.52     l50.895,0.214c3.022,0.011,5.467,2.465,5.467,5.488v56.425c0,3.034-2.455,5.488-5.488,5.488h-36.949     c-9.068,0-9.068,7.782-9.068,10.333v20.838h46.854c1.543,0,3.012,0.654,4.052,1.79c1.04,1.137,1.554,2.659,1.415,4.191     l-6.003,65.858c-0.257,2.83-2.626,4.995-5.467,4.995H283.43v159.157c0,3.033-2.454,5.488-5.487,5.488H212.084z"
           style="fill:#757510;fill-opacity:1"
           id="path36" /><path
           d="M201.107,256h-32.929v-65.858h32.661v-29.756c0-26.948,12.831-69.031,69.299-69.031l50.873,0.214     v56.425c0,0-30.936,0-36.949,0c-6.003,0-14.557,2.98-14.557,15.821v26.326h52.342L315.845,256h-48.879     c0,73.748,0,164.646,0,164.646h-65.858C201.107,420.646,201.107,330.627,201.107,256z"
           style="fill:#ffea00;fill-opacity:1"
           id="path38" /><path
           d="M281.115,91.354l50.873,0.214v56.425c0,0-30.936,0-36.949,0c-6.003,0-14.557,2.98-14.557,15.821     v26.326h52.342L326.821,256h-48.879c0,73.748,0,164.646,0,164.646h-65.858c0,0,0-90.019,0-164.646h-32.929v-65.858h32.661     v-29.756C211.816,133.438,224.646,91.354,281.115,91.354 M332.824,190.142h0.053 M281.115,80.378     c-59.256,0-80.276,43.102-80.276,80.008v18.779h-21.685c-6.067,0-10.977,4.91-10.977,10.977V256     c0,6.067,4.91,10.977,10.977,10.977h21.953v153.669c0,6.067,4.909,10.977,10.977,10.977h65.858     c6.056,0,10.976-4.909,10.976-10.977V266.977h37.903c5.671,0,10.408-4.331,10.934-9.979l5.928-65.076     c0.097-0.579,0.14-1.179,0.14-1.779c0-6.067-4.889-10.977-10.945-10.977h-0.053h-41.365v-15.35c0-4.845,1.426-4.845,3.58-4.845     h36.949c6.056,0,10.976-4.909,10.976-10.977V91.569c0-6.045-4.888-10.955-10.933-10.976l-50.873-0.215     C281.146,80.378,281.125,80.378,281.115,80.378L281.115,80.378z"
           style="fill:#1b1b1f;fill-opacity:1"
           id="path40" /></g></g></g><g
     id="Layer_1" /></svg>
