<?xml version="1.0" encoding="UTF-8" standalone="no"?>
<svg
   height="512px"
   style="enable-background:new 0 0 512 512;"
   version="1.1"
   viewBox="0 0 512 512"
   width="512px"
   xml:space="preserve"
   id="svg48"
   sodipodi:docname="github_media_social_icon.svg"
   inkscape:version="1.1 (c68e22c387, 2021-05-23)"
   xmlns:inkscape="http://www.inkscape.org/namespaces/inkscape"
   xmlns:sodipodi="http://sodipodi.sourceforge.net/DTD/sodipodi-0.dtd"
   xmlns="http://www.w3.org/2000/svg"
   xmlns:svg="http://www.w3.org/2000/svg"><defs
     id="defs52" /><sodipodi:namedview
     id="namedview50"
     pagecolor="#505050"
     bordercolor="#eeeeee"
     borderopacity="1"
     inkscape:pageshadow="0"
     inkscape:pageopacity="0"
     inkscape:pagecheckerboard="0"
     showgrid="false"
     inkscape:zoom="1.625"
     inkscape:cx="181.84615"
     inkscape:cy="185.53846"
     inkscape:window-width="1920"
     inkscape:window-height="1017"
     inkscape:window-x="-8"
     inkscape:window-y="-8"
     inkscape:window-maximized="1"
     inkscape:current-layer="g44" /><g
     id="social__x2C__media__x2C__social_media__x2C___github__x2C_"><g
       id="g44"><g
         id="g10"><g
           id="g8" /></g><g
         id="g34"><g
           id="g16"><g
             id="g14" /></g><g
           id="g20" /><g
           id="g24" /><g
           id="g28" /><g
           id="g32" /></g><g
         id="g42"><path
           d="m 287.728,423.488 c -7.921,0 -19.658,-7.61 -23.731,-11.694 -3.034,-3.045 -5.06,-6.839 -6.421,-11.095 -0.289,1.029 -0.601,1.93 -0.933,2.669 -5.606,12.359 -19.177,20.002 -28.556,20.002 -2.466,0 -4.566,-0.547 -6.249,-1.629 -2.401,-1.533 -3.773,-4.052 -3.773,-6.925 0,-3.27 1.329,-5.349 2.68,-6.807 -6.582,4.405 -14.717,6.657 -20.355,6.657 -4.877,0 -15.05,0 -15.05,-7.954 0,-5.135 4.32,-8.254 8.125,-11.009 4.771,-3.44 7.89,-5.992 7.89,-9.915 0,-7.128 -0.097,-22.06 -0.161,-30.518 -3.58,0.354 -8.457,0.676 -14.16,0.676 -34.043,0 -43.938,-23.411 -47.657,-32.232 -4.931,-11.716 -11.094,-17.44 -18.812,-22.436 -6.678,-4.298 -6.914,-8.778 -6.464,-11.062 0.407,-2.048 1.994,-5.639 8.082,-6.764 2.037,-0.387 3.999,-0.568 5.864,-0.568 15.157,0 23.861,11.319 31.546,21.299 4.877,6.335 9.476,12.316 14.685,13.967 3.88,1.223 8.393,1.865 13.067,1.865 v 0 c 6.131,0 12.048,-1.125 16.11,-3.001 1.233,-6.218 4.267,-11.855 7.911,-16.497 -37.421,-5.617 -62.311,-20.441 -75.924,-45.148 l 0.107,-0.054 c -3.151,-3.956 -5.338,-10.912 -6.217,-14.096 l -0.096,0.043 c -4.267,-12.595 -6.346,-27.023 -6.356,-44.12 0,-28.599 8.747,-40.55101 20.002,-54.90301 -8.104,-32.32899 3.912,-54.388995 4.438,-55.331995 0.782,-1.394 2.122,-2.38 3.677,-2.701 0.375,-0.075 1.79,-0.333 4.212,-0.333 8.243,0 25.822,2.809 52.298,21.181005 10.987,-3.81601 29.113,-6.057005 49.533,-6.057005 17.183,0 33.068,1.618995 44.185,4.449005 12.713,-8.104005 35.502,-20.227005 49.833,-20.227005 2.39,0 4.545,0.332 6.399,0.997 1.168,0.418 2.165,1.222 2.818,2.272 4.041,6.485 9.959,21.706005 5.049,51.418995 0.558,0.729 1.254,1.543 2.026,2.487 7.321,8.95 20.956,25.60801 21.021,60.67001 -0.29,15.457 -1.887,28.342 -4.856,39.489 -0.429,2.637 -1.972,10.612 -5.295,14.921 -14.053,30.41 -43.08,40.315 -74.198,44.742 7.697,9.175 10.302,22.167 10.302,45.503 0,17.922 -0.15,26.508 -0.236,31.996 -0.063,3.559 -0.106,5.788 -0.063,8.457 0.063,4.277 4.994,7.9 8.961,10.815 3.805,2.798 7.738,5.703 6.936,10.397 -0.826,4.749 -5.414,7.161 -13.635,7.161 -4.76,0 -9.927,-0.782 -13.496,-2.037 -2.744,-0.954 -5.123,-2.111 -7.192,-3.419 0.857,1.575 1.437,3.301 1.437,5.273 -0.004,5.46 -3.745,9.126 -9.308,9.126 z"
           style="fill:#757510;fill-opacity:1"
           id="path42606" /><path
           d="M128.292,242.14c-4.191-12.37-6.056-26.519-6.067-42.362c0-28.084,8.757-38.675,20.517-53.66     c-8.994-32.007,3.226-53.896,3.226-53.896s18.898-3.923,54.625,21.652c19.359-8.296,70.993-8.961,95.411-1.844     c14.985-9.883,42.404-23.946,53.467-20.001c3.001,4.824,9.454,18.844,3.934,49.737c3.741,6.753,23.261,21.181,23.336,61.956     c-0.289,15.028-1.876,27.741-4.781,38.46c0.558,0-3.709,13.313-4.716,13.292c-12.949,28.428-39.532,39.039-82.462,43.434     c13.924,8.769,17.911,19.745,17.911,49.459c0,29.713-0.407,33.7-0.3,40.539c0.15,11.212,16.593,16.594,15.971,20.195     c-0.621,3.602-13.752,3.044-19.895,0.879c-17.418-6.046-15.682-20.538-15.682-20.538l-0.568-39.726     c0,0,1.189-21.373-6.731-21.373v65.021c0,14.128,9.915,18.416,9.915,23.646c0,8.982-18.083-0.857-23.668-6.453     c-8.489-8.532-7.514-26.604-7.31-40.883c0.193-13.827-0.128-44.012-0.128-44.012l-5.767,0.128c0,0,2.369,65.944-3.034,77.971     c-6.989,15.414-28.084,20.753-28.084,13.699c0-4.716,5.199-3.216,8.071-13.806c2.444-9.025,1.608-76.256,1.608-76.256     s-6.753,4.009-6.753,16.593c0,5.745-0.161,38.696-0.161,48.472c0,12.327-17.515,19.359-25.93,19.359     c-4.255,0-9.562-0.215-9.562-2.466c0-5.702,16.015-9.047,16.015-20.924c0-10.269-0.214-36.724-0.214-36.724     s-8.083,1.394-19.595,1.394c-29.049,0-38.235-18.522-42.608-28.878c-5.681-13.506-13.056-19.852-20.892-24.91     c-4.813-3.109-5.917-6.797-0.354-7.825c25.705-4.845,32.275,29.112,49.447,34.537c12.252,3.858,28.009,2.187,35.845-2.873     c1.04-10.376,8.522-19.358,14.761-24.075c-43.67-4.181-69.557-19.337-82.987-43.712     C133.931,255.368,127.778,242.14,128.292,242.14L128.292,242.14z"
           style="fill:#ffea00;fill-opacity:1"
           id="path38" /><path
           d="M355.892,91.354c1.715,0,3.248,0.214,4.556,0.675c3.001,4.824,9.454,18.844,3.934,49.737     c3.741,6.753,23.261,21.181,23.336,61.956c-0.29,15.028-1.876,27.741-4.781,38.46c0.558,0-3.698,13.292-4.717,13.292l0,0     c-12.948,28.428-39.531,39.039-82.462,43.434c13.925,8.769,17.912,19.745,17.912,49.459c0,29.713-0.407,33.7-0.3,40.539     c0.149,11.212,16.593,16.594,15.971,20.195c-0.321,1.854-3.944,2.604-8.221,2.604c-4.053,0-8.684-0.676-11.674-1.726     c-17.418-6.046-15.682-20.538-15.682-20.538l-0.568-39.726c0,0,1.189-21.373-6.731-21.373v65.021     c0,14.128,9.915,18.416,9.915,23.646c0,2.604-1.522,3.634-3.816,3.634c-5.627,0-15.885-6.11-19.852-10.087     c-8.489-8.532-7.514-26.604-7.311-40.883c0.193-13.827-0.129-44.012-0.129-44.012l-5.767,0.128c0,0,2.369,65.944-3.033,77.971     c-4.941,10.901-16.947,16.765-23.55,16.765c-2.723,0-4.534-0.996-4.534-3.065c0-4.716,5.199-3.216,8.071-13.806     c2.444-9.025,1.608-76.256,1.608-76.256s-6.753,4.009-6.753,16.593c0,5.745-0.161,38.696-0.161,48.472     c0,12.327-17.515,19.359-25.93,19.359c-4.256,0-9.562-0.215-9.562-2.466c0-5.702,16.015-9.047,16.015-20.924     c0-10.269-0.215-36.724-0.215-36.724s-8.082,1.394-19.595,1.394c-29.048,0-38.234-18.522-42.608-28.878     c-5.681-13.506-13.056-19.852-20.892-24.91c-4.813-3.109-5.917-6.797-0.354-7.825c1.705-0.321,3.323-0.472,4.867-0.472     c21.76,0,28.545,29.949,44.581,35.009c4.609,1.458,9.723,2.122,14.718,2.122c8.275,0,16.239-1.833,21.127-4.995     c1.04-10.376,8.521-19.358,14.76-24.075c-43.669-4.181-69.556-19.337-82.987-43.712c-0.171,0-6.324-13.228-5.81-13.228     c-4.191-12.37-6.056-26.519-6.066-42.362c0-28.084,8.757-38.675,20.516-53.66c-8.994-32.007,3.226-53.896,3.226-53.896     s1.04-0.214,3.098-0.214c6.7,0,24.193,2.294,51.527,21.867c10.473-4.48,30.367-6.742,50.305-6.742     c16.937,0,33.894,1.629,45.106,4.898C320.197,103.317,343.082,91.354,355.892,91.354 M355.892,80.378     c-16.711,0-40.872,13.742-50.776,19.841c-11.384-2.594-26.776-4.063-43.241-4.063c-9.797,0-32.458,0.59-48.665,5.488     c-26.476-17.836-44.516-20.612-53.167-20.612c-2.873,0-4.684,0.311-5.328,0.45c-3.119,0.643-5.799,2.615-7.353,5.392     c-0.557,0.997-12.927,23.71-5.595,56.704c-10.741,13.849-19.541,27.216-19.541,56.2c0.011,17.719,2.187,32.726,6.646,45.889     l0.097-0.032c0.976,4.052,3.065,10.826,6.774,15.521c13.484,24.117,36.928,39.264,71.325,46.006     c-1.404,2.637-2.583,5.445-3.43,8.404c-2.916,0.922-6.903,1.607-11.458,1.607c-4.116,0-8.061-0.557-11.416-1.607     c-3.559-1.126-7.847-6.699-11.995-12.081c-7.61-9.894-18.029-23.442-35.887-23.442c-2.251,0-4.566,0.225-6.893,0.664     c-9.862,1.822-12.005,8.951-12.434,11.084c-0.579,2.938-0.879,10.451,8.865,16.743c7.064,4.566,12.327,9.497,16.722,19.948     c3.73,8.822,15.039,35.599,52.727,35.599c3.163,0,6.1-0.097,8.715-0.247c0.054,8.351,0.118,18.941,0.118,24.601     c0,1.404-3.248,3.752-5.617,5.467c-4.384,3.173-10.397,7.515-10.397,15.457c0,8.918,6.914,13.441,20.538,13.441     c3.634,0,8.039-0.761,12.53-2.283c1.33,5.853,6.485,10.987,15.168,10.987c9.368,0,21.695-5.938,29.402-16.229     c0.793,1.061,1.662,2.068,2.604,3.022c4.642,4.652,17.505,13.324,27.634,13.324c7.268,0,12.842-4.417,14.375-10.912     c3.977,1.222,9.304,1.972,14.182,1.972c14.803,0,18.286-7.331,19.037-11.715c1.393-8.04-4.921-12.682-9.09-15.747     c-1.662-1.222-6.7-4.931-6.722-6.453c-0.042-2.647,0-4.823,0.064-8.307c0.086-5.51,0.236-14.117,0.236-32.093     c0-17.709-1.298-30.979-6.614-41.408c29.178-5.221,55.697-16.433,69.621-45.729c3.934-5.273,5.52-13.163,6.066-16.86     c3.045-11.513,4.674-24.751,4.975-40.433c-0.064-37.249-15.061-55.568-22.264-64.368c-0.15-0.193-0.312-0.375-0.461-0.568     c4.255-28.352-0.922-44.292-6.196-52.771c-1.318-2.101-3.302-3.708-5.638-4.534C361.68,80.817,358.914,80.378,355.892,80.378     L355.892,80.378z"
           style="fill:#1b1b1f;fill-opacity:1"
           id="path40" /></g></g></g><g
     id="Layer_1" /></svg>
