<?xml version="1.0" encoding="UTF-8" standalone="no"?>
<svg
   height="512px"
   style="enable-background:new 0 0 512 512;"
   version="1.1"
   viewBox="0 0 512 512"
   width="512px"
   xml:space="preserve"
   id="svg48"
   sodipodi:docname="in_linked_media_social_icon.svg"
   inkscape:version="1.1 (c68e22c387, 2021-05-23)"
   xmlns:inkscape="http://www.inkscape.org/namespaces/inkscape"
   xmlns:sodipodi="http://sodipodi.sourceforge.net/DTD/sodipodi-0.dtd"
   xmlns="http://www.w3.org/2000/svg"
   xmlns:svg="http://www.w3.org/2000/svg"><defs
     id="defs52" /><sodipodi:namedview
     id="namedview50"
     pagecolor="#505050"
     bordercolor="#eeeeee"
     borderopacity="1"
     inkscape:pageshadow="0"
     inkscape:pageopacity="0"
     inkscape:pagecheckerboard="0"
     showgrid="false"
     inkscape:zoom="1.1490485"
     inkscape:cx="300.68357"
     inkscape:cy="264.13158"
     inkscape:window-width="1920"
     inkscape:window-height="1017"
     inkscape:window-x="-8"
     inkscape:window-y="-8"
     inkscape:window-maximized="1"
     inkscape:current-layer="svg48" /><g
     id="social__x2C__media__x2C__social_media__x2C___linked_in__x2C_"><g
       id="g44"><g
         id="g10"><g
           id="g8" /></g><g
         id="g34"><g
           id="g16"><g
             id="g14" /></g><g
           id="g20" /><g
           id="g24" /><g
           id="g28" /><g
           id="g32" /></g><g
         id="g42"><path
           d="M354.787,426.134c-3.033,0-5.488-2.455-5.488-5.488V313.69c0-31.718-5.498-52.846-32.307-52.846     c-25.501,0-35.438,14.3-35.438,51.002v108.799c0,3.033-2.455,5.488-5.488,5.488h-63.972c-3.034,0-5.488-2.455-5.488-5.488     V201.118c0-3.033,2.455-5.488,5.488-5.488h61.206c3.033,0,5.488,2.455,5.488,5.488v14.546     c13.206-12.885,34.226-20.034,60.027-20.034c72.461,0,87.317,41.729,87.317,104.383v120.633c0,3.033-2.455,5.488-5.488,5.488     H354.787z M91.354,426.134c-3.033,0-5.488-2.455-5.488-5.488V201.118c0-3.033,2.455-5.488,5.488-5.488h76.834     c3.034,0,5.488,2.455,5.488,5.488v219.527c0,3.033-2.455,5.488-5.488,5.488H91.354z M129.771,173.677     c-24.214,0-43.905-19.691-43.905-43.906c0-24.214,19.691-43.905,43.905-43.905c24.204,0,43.906,19.691,43.906,43.905     C173.677,153.986,153.976,173.677,129.771,173.677z"
           style="fill:#757510;fill-opacity:1"
           id="path36" /><path
           d="M80.378,201.118h76.835v219.527H80.378V201.118z M118.795,168.189     c21.203,0,38.417-17.215,38.417-38.417c0-21.202-17.215-38.417-38.417-38.417c-21.235,0-38.417,17.215-38.417,38.417     C80.378,150.974,97.561,168.189,118.795,168.189z M409.669,300.013c0-59.234-12.776-98.895-81.829-98.895     c-33.187,0-55.461,12.327-64.572,29.628h-0.943v-29.628h-61.206v219.527h63.972V311.847c0-28.706,5.424-56.49,40.926-56.49     c34.966,0,37.795,32.822,37.795,58.333v106.955h65.858V300.013z"
           style="fill:#ffea00;fill-opacity:1"
           id="path38" /><path
           d="M129.771,91.354c21.203,0,38.417,17.215,38.417,38.417c0,21.203-17.215,38.417-38.417,38.417     c-21.234,0-38.417-17.215-38.417-38.417C91.354,108.569,108.537,91.354,129.771,91.354 M338.816,201.118     c69.052,0,81.829,39.661,81.829,98.895v120.633h-65.858V313.69c0-25.512-2.83-58.333-37.795-58.333     c-35.502,0-40.926,27.784-40.926,56.49v108.799h-63.972V201.118h61.206v29.628h0.943     C283.355,213.445,305.629,201.118,338.816,201.118 M168.189,201.118v219.527H91.354V201.118H168.189 M129.771,80.378     c-27.237,0-49.394,22.156-49.394,49.394s22.156,49.394,49.394,49.394s49.394-22.156,49.394-49.394S157.009,80.378,129.771,80.378     L129.771,80.378z M338.816,190.142c-21.91,0-40.637,4.974-54.539,14.128v-3.151c0-6.067-4.92-10.977-10.977-10.977h-61.206     c-6.067,0-10.977,4.909-10.977,10.977v219.527c0,6.067,4.909,10.977,10.977,10.977h63.972c6.057,0,10.977-4.909,10.977-10.977     V311.847c0-38.063,10.976-45.514,29.949-45.514c19.551,0,26.818,12.831,26.818,47.357v106.955c0,6.067,4.91,10.977,10.977,10.977     h65.858c6.057,0,10.977-4.909,10.977-10.977V300.013C431.622,242.944,420.378,190.142,338.816,190.142L338.816,190.142z      M168.189,190.142H91.354c-6.067,0-10.977,4.909-10.977,10.977v219.527c0,6.067,4.909,10.977,10.977,10.977h76.834     c6.056,0,10.976-4.909,10.976-10.977V201.118C179.165,195.051,174.245,190.142,168.189,190.142L168.189,190.142z"
           style="fill:#1b1b1f;fill-opacity:1"
           id="path40" /></g></g></g><g
     id="Layer_1" /></svg>
