<?xml version="1.0" encoding="UTF-8" standalone="no"?>
<svg
   height="512px"
   style="enable-background:new 0 0 512 512;"
   version="1.1"
   viewBox="0 0 512 512"
   width="512px"
   xml:space="preserve"
   id="svg48"
   sodipodi:docname="twitter_media_social_icon.svg"
   inkscape:version="1.1 (c68e22c387, 2021-05-23)"
   xmlns:inkscape="http://www.inkscape.org/namespaces/inkscape"
   xmlns:sodipodi="http://sodipodi.sourceforge.net/DTD/sodipodi-0.dtd"
   xmlns="http://www.w3.org/2000/svg"
   xmlns:svg="http://www.w3.org/2000/svg"><defs
     id="defs52" /><sodipodi:namedview
     id="namedview50"
     pagecolor="#505050"
     bordercolor="#eeeeee"
     borderopacity="1"
     inkscape:pageshadow="0"
     inkscape:pageopacity="0"
     inkscape:pagecheckerboard="0"
     showgrid="false"
     inkscape:zoom="0.8125"
     inkscape:cx="488"
     inkscape:cy="305.84615"
     inkscape:window-width="1920"
     inkscape:window-height="1017"
     inkscape:window-x="-8"
     inkscape:window-y="-8"
     inkscape:window-maximized="1"
     inkscape:current-layer="svg48" /><g
     id="social__x2C__media__x2C__social_media__x2C__twitter__x2C_2__x2C_"><g
       id="g44"><g
         id="g10"><g
           id="g8" /></g><g
         id="g34"><g
           id="g16"><g
             id="g14" /></g><g
           id="g20" /><g
           id="g24" /><g
           id="g28" /><g
           id="g32" /></g><g
         id="g42"><path
           d="M331.549,426.134c-5.35,0-21.771-0.311-39.607-0.653c-21.139-0.408-44.281-0.848-53.242-0.848     c-22.875,0-108.038-31.461-108.038-125.799l-0.064-50.22c-0.043-7.385-0.128-14.792-0.225-22.199     c-0.097-8.146-0.193-16.282-0.225-24.396c0-4.502-0.021-8.993-0.064-13.474c-0.021-3.892-0.085-7.836-0.15-11.823     c-0.354-21.16-0.729-43.027,6.003-62.879c6.099-18.04,21.02-27.977,42.029-27.977c46.971,0,49.469,48.407,49.705,83.695h114.062     c22.692,0,38.546,22.039,38.546,53.596c0,32.425-32.779,41.076-52.148,41.076H226.18l-0.215,6.796     c-0.396,12.198-0.718,22.156-0.718,28.834c0,16.347,5.638,33.058,47.475,33.058h64.196c18.213,0,45.311,13.613,45.311,51.109     C382.229,415.071,356.041,426.134,331.549,426.134z"
           style="fill:#757510;fill-opacity:1"
           id="path36" /><path
           d="M124.595,188.491c-0.086-23.625-2.123-50.208,5.563-72.89     c5.842-17.279,19.723-24.247,36.831-24.247c41.354,0,44.109,41.783,44.238,83.695h119.528c18.94,0,33.058,19.059,33.058,48.107     c0,29.07-30.592,35.587-46.66,35.587H209.887c-0.547,17.794-1.104,32.308-1.104,41.118c0,18.544,7.289,38.546,52.963,38.546     h64.197c16.046,0,39.821,12.049,39.821,45.621c0,33.551-33.497,36.616-45.191,36.616c-11.674,0-76.32-1.501-92.85-1.501     c-16.496,0-102.549-26.583-102.549-120.311c0-16.744-0.043-33.486-0.064-50.23c-0.085-15.542-0.386-31.128-0.45-46.606     C124.659,197.495,124.637,192.993,124.595,188.491z"
           style="fill:#ffea00;fill-opacity:1"
           id="path38" /><path
           d="M177.965,91.354c41.354,0,44.109,41.783,44.238,83.695h119.529     c18.94,0,33.058,19.059,33.058,48.107c0,29.07-30.592,35.587-46.66,35.587H220.863c-0.546,17.794-1.104,32.308-1.104,41.118     c0,18.544,7.289,38.546,52.963,38.546h64.196c16.047,0,39.822,12.049,39.822,45.621c0,33.551-33.497,36.616-45.191,36.616     c-11.674,0-76.32-1.501-92.85-1.501c-16.497,0-102.55-26.583-102.55-120.311c0-16.744-0.043-33.486-0.064-50.23     c-0.085-15.542-0.386-31.128-0.45-46.606c0-4.502-0.021-9.004-0.064-13.506c-0.085-23.625-2.123-50.208,5.563-72.89     C146.976,98.322,160.857,91.354,177.965,91.354 M177.965,80.378c-23.55,0-40.314,11.255-47.229,31.707     c-7.031,20.752-6.635,44.109-6.292,64.722c0.064,3.966,0.129,7.889,0.15,11.727c0.042,4.523,0.064,8.993,0.064,13.463     c0.032,8.168,0.128,16.325,0.225,24.482c0.097,7.396,0.183,14.792,0.225,22.188l0.021,16.637     c0.021,11.18,0.043,22.349,0.043,33.529c0,98.455,89.483,131.287,113.526,131.287c8.875,0,32.394,0.45,53.135,0.847     c18.395,0.354,34.279,0.654,39.715,0.654c27.15,0,56.168-12.499,56.168-47.593c0-41.526-30.379-56.598-50.799-56.598h-64.196     c-41.986,0-41.986-17.258-41.986-27.569c0-6.538,0.311-16.293,0.707-28.651l0.054-1.49h96.633     c28.685,0,57.637-14.396,57.637-46.564c0-34.784-18.104-59.083-44.034-59.083H233.093     C232.515,128.646,227.541,80.378,177.965,80.378L177.965,80.378z"
           style="fill:#1b1b1f;fill-opacity:1"
           id="path40" /></g></g></g><g
     id="Layer_1" /></svg>
