<?xml version="1.0" encoding="UTF-8" standalone="no"?>
<svg
   enable-background="new 0 0 100 100"
   height="512"
   version="1.1"
   viewBox="0 0 512 512"
   width="512"
   xml:space="preserve"
   id="svg51"
   sodipodi:docname="259293_non_service_aws_specific_copy_icon.svg"
   inkscape:version="1.1 (c68e22c387, 2021-05-23)"
   xmlns:inkscape="http://www.inkscape.org/namespaces/inkscape"
   xmlns:sodipodi="http://sodipodi.sourceforge.net/DTD/sodipodi-0.dtd"
   xmlns="http://www.w3.org/2000/svg"
   xmlns:svg="http://www.w3.org/2000/svg"><defs
     id="defs55" /><sodipodi:namedview
     id="namedview53"
     pagecolor="#505050"
     bordercolor="#eeeeee"
     borderopacity="1"
     inkscape:pageshadow="0"
     inkscape:pageopacity="0"
     inkscape:pagecheckerboard="0"
     showgrid="false"
     inkscape:zoom="0.73539105"
     inkscape:cx="312.07886"
     inkscape:cy="318.87796"
     inkscape:window-width="1920"
     inkscape:window-height="1017"
     inkscape:window-x="-8"
     inkscape:window-y="-8"
     inkscape:window-maximized="1"
     inkscape:current-layer="g38" /><rect
     style="fill:#f58535;fill-opacity:1;stroke:none;stroke-width:18.3821;stroke-linecap:round;paint-order:stroke fill markers"
     id="rect894"
     width="512"
     height="512"
     x="0"
     y="0" /><g
     id="Layer_1"
     transform="matrix(4.4729848,0,0,4.4729848,36.015592,29.946915)"><g
       id="g48"><g
         id="g38"><path
           style="fill:#9d5125;fill-opacity:0.61987;stroke:none;stroke-width:0.223564px;stroke-linecap:butt;stroke-linejoin:miter;stroke-opacity:1"
           d="m 14.754999,58.711999 46.922649,49.050691 44.735502,0.007 0.11178,-26.786868 L 72.606,44.643 Z"
           id="path9595"
           sodipodi:nodetypes="cccccc" /><g
           enable-background="new    "
           id="g36"><g
             id="g16"><defs
               id="defs3"><path
                 d="m 85.245,58.712 v 2.615 c 0,5.863 -6.395,11.791 -14.256,11.791 v -2.613 c 7.862,0 14.256,-5.93 14.256,-11.793 z"
                 id="SVGID_1_" /></defs><clipPath
               id="SVGID_2_" /><g
               clip-path="url(#SVGID_2_)"
               enable-background="new    "
               id="g14"><path
                 d="m 85.245,58.712 v 2.615 c 0,0.4 -0.029,0.799 -0.086,1.193 v -2.613 c 0.057,-0.396 0.086,-0.795 0.086,-1.195"
                 fill="#9d5125"
                 id="path6" /><path
                 d="m 85.159,59.907 v 2.613 c -0.074,0.5 -0.189,0.996 -0.346,1.486 v -2.613 c 0.157,-0.492 0.272,-0.986 0.346,-1.486"
                 fill="#9d5125"
                 id="path8" /><path
                 d="m 84.813,61.394 v 2.613 c -0.205,0.633 -0.477,1.258 -0.812,1.861 v -2.613 c 0.336,-0.606 0.607,-1.229 0.812,-1.861"
                 fill="#9d5125"
                 id="path10" /><path
                 d="m 84.001,63.255 v 2.613 c -2.23,4.035 -7.223,7.25 -13.012,7.25 v -2.613 c 5.789,0 10.782,-3.217 13.012,-7.25"
                 fill="#9d5125"
                 id="path12" /></g></g><g
             id="g20" /><g
             id="g30"><defs
               id="defs23"><path
                 d="m 29.009,70.505 v 2.613 c -7.875,0 -14.254,-5.928 -14.254,-11.791 v -2.615 c 0,5.863 6.379,11.793 14.254,11.793 z"
                 id="SVGID_3_" /></defs><clipPath
               id="SVGID_4_" /><g
               clip-path="url(#SVGID_4_)"
               enable-background="new    "
               id="g28"><path
                 d="m 29.009,70.505 v 2.613 c -7.875,0 -14.254,-5.928 -14.254,-11.791 v -2.615 c 0,5.863 6.379,11.793 14.254,11.793"
                 fill="#9d5125"
                 id="path26" /></g></g><g
             id="g34"><path
               d="m 41.88,26.882 c 7.318,0 13.617,4.352 16.443,10.578 1.465,-0.998 3.246,-1.592 5.17,-1.592 4.945,0 8.963,3.896 9.113,8.775 7.113,0.594 12.639,7.439 12.639,12.885 v 1.184 c 0,5.863 -6.395,11.793 -14.256,11.793 h -41.98 c -7.875,0 -14.254,-5.93 -14.254,-11.793 v -1.184 c 0,-4.502 3.801,-10.717 9.137,-12.238 -0.016,-0.174 -0.027,-0.35 -0.027,-0.525 -10e-4,-9.879 8.064,-17.883 18.015,-17.883 z"
               fill="#f58535"
               id="path32"
               style="fill:#ffffff" /></g></g></g><g
         id="g46"><path
           d="m 32.419,47.812 -4.707,16.447 h 2.76 l 1.064,-4.029 h 4.848 l 1.023,4.029 h 2.758 L 35.806,47.812 Z m -0.393,10.322 1.973,-8.111 h 0.043 l 1.902,8.111 z"
           fill="#ffffff"
           id="path40"
           style="fill:#f58535;fill-opacity:1" /><polygon
           fill="#ffffff"
           points="48.288,51.868 50.421,64.259 53.479,64.259 56.771,47.812 54.149,47.812 51.995,60.663 51.948,60.663 49.722,47.812 46.938,47.812 44.761,60.595 44.712,60.595 42.536,47.812 39.868,47.812 43.065,64.259 46.128,64.259 48.239,51.868 "
           id="polygon42"
           style="fill:#f58535;fill-opacity:1" /><path
           d="m 65.282,55.276 -1.785,-0.648 c -1.762,-0.666 -2.48,-1.381 -2.48,-2.783 0,-1.754 1.09,-2.375 2.223,-2.375 1.646,0 2.32,0.875 2.32,2.375 v 0.346 h 2.646 v -0.373 c 0,-1.701 -0.441,-4.328 -4.684,-4.328 -3.107,0 -5.148,1.66 -5.148,4.658 0,2.346 1.041,3.59 3.453,4.508 l 1.809,0.627 c 1.488,0.434 2.367,1.197 2.367,2.922 0,1.221 -0.838,2.398 -2.506,2.398 -1.828,0 -2.711,-1.016 -2.711,-3.018 V 59.167 H 58.14 v 0.393 c 0,2.305 0.93,5.02 5.031,5.02 3.34,0 5.477,-1.449 5.477,-4.947 -10e-4,-2.261 -1.024,-3.53 -3.366,-4.357 z"
           fill="#ffffff"
           id="path44"
           style="fill:#f58535;fill-opacity:1" /></g></g></g></svg>
