<?xml version="1.0" encoding="UTF-8" standalone="no"?>
<svg
   height="512px"
   style="enable-background:new 0 0 512 512;"
   version="1.1"
   viewBox="0 0 512 512"
   width="512px"
   xml:space="preserve"
   id="svg28"
   sodipodi:docname="4373190_docker_logo_logos_icon.svg"
   inkscape:version="1.1 (c68e22c387, 2021-05-23)"
   xmlns:inkscape="http://www.inkscape.org/namespaces/inkscape"
   xmlns:sodipodi="http://sodipodi.sourceforge.net/DTD/sodipodi-0.dtd"
   xmlns="http://www.w3.org/2000/svg"
   xmlns:svg="http://www.w3.org/2000/svg"><defs
     id="defs32" /><sodipodi:namedview
     id="namedview30"
     pagecolor="#505050"
     bordercolor="#eeeeee"
     borderopacity="1"
     inkscape:pageshadow="0"
     inkscape:pageopacity="0"
     inkscape:pagecheckerboard="0"
     showgrid="false"
     inkscape:zoom="0.57452426"
     inkscape:cx="425.5695"
     inkscape:cy="321.13526"
     inkscape:window-width="1920"
     inkscape:window-height="1017"
     inkscape:window-x="-8"
     inkscape:window-y="-8"
     inkscape:window-maximized="1"
     inkscape:current-layer="svg28" /><rect
     style="fill:#099cec;fill-opacity:1;stroke-width:0.883039;stroke-linecap:round;paint-order:stroke fill markers"
     id="rect871"
     width="512"
     height="512"
     x="0"
     y="0" /><path
     style="fill:#4d4d4d;stroke:none;stroke-width:1px;stroke-linecap:butt;stroke-linejoin:miter;stroke-opacity:0.70410365;fill-opacity:0.58315337;opacity:1"
     d="M 104.09277,253.96674 103.07693,272.15385 270.15385,512 H 512 V 317.53846 l -102.92413,-81.84373 -76.64098,22.10971 z"
     id="path3660"
     sodipodi:nodetypes="cccccccc" /><g
     id="_x39_7-docker"
     style="fill:#ffffff"
     transform="matrix(0.66555031,0,0,0.66555031,85.619087,85.619121)"><g
       id="g24"
       style="fill:#ffffff"><g
         id="g22"
         style="fill:#ffffff"><rect
           height="43.193001"
           style="fill:#ffffff"
           width="47.506001"
           x="229.99899"
           y="147.22501"
           id="rect2" /><rect
           height="42.689999"
           style="fill:#ffffff"
           width="47.506001"
           x="229.99899"
           y="199.11501"
           id="rect4" /><rect
           height="43.193001"
           style="fill:#ffffff"
           width="47.506001"
           x="173.869"
           y="147.22501"
           id="rect6" /><rect
           height="42.691002"
           style="fill:#ffffff"
           width="47.507"
           x="286.20001"
           y="199.043"
           id="rect8" /><rect
           height="43.625"
           style="fill:#ffffff"
           width="47.506001"
           x="229.99899"
           y="94.974998"
           id="rect10" /><rect
           height="43.193001"
           style="fill:#ffffff"
           width="47.505001"
           x="117.738"
           y="147.22501"
           id="rect12" /><rect
           height="42.691002"
           style="fill:#ffffff"
           width="47.506001"
           x="173.869"
           y="199.043"
           id="rect14" /><path
           d="m 476.441,219.095 c -10.35,-6.972 -34.21,-9.487 -52.537,-6.036 -2.371,-17.249 -12.003,-32.27 -29.538,-45.782 l -10.062,-6.685 -6.685,10.062 c -13.225,19.98 -16.817,52.896 -2.658,74.602 -6.252,3.377 -18.545,7.978 -34.786,7.689 H 27.757 c -6.252,36.511 4.169,83.945 31.624,116.501 26.663,31.551 66.623,47.579 118.872,47.579 113.124,0 196.851,-52.104 236.021,-146.76 15.381,0.288 48.584,0.073 65.618,-32.483 1.078,-1.797 4.743,-9.488 6.107,-12.291 z"
           style="fill:#ffffff"
           id="path16" /><polygon
           points="109.113,199.043 61.68,199.043 61.68,241.734 109.186,241.734 109.186,199.043 "
           style="fill:#ffffff"
           id="polygon18" /><rect
           height="42.691002"
           style="fill:#ffffff"
           width="47.505001"
           x="117.738"
           y="199.043"
           id="rect20" /></g></g></g><g
     id="Layer_1" /></svg>
