<?xml version="1.0" encoding="UTF-8" standalone="no"?>
<svg
   enable-background="new 0 0 24 24"
   id="Layer_1"
   version="1.1"
   viewBox="0 0 512 512"
   xml:space="preserve"
   sodipodi:docname="Git.svg"
   inkscape:version="1.1 (c68e22c387, 2021-05-23)"
   width="512"
   height="512"
   xmlns:inkscape="http://www.inkscape.org/namespaces/inkscape"
   xmlns:sodipodi="http://sodipodi.sourceforge.net/DTD/sodipodi-0.dtd"
   xmlns="http://www.w3.org/2000/svg"
   xmlns:svg="http://www.w3.org/2000/svg"><defs
     id="defs59"><linearGradient
       gradientUnits="userSpaceOnUse"
       id="linearGradient1184"
       x1="9.6692657"
       x2="18.306595"
       y1="9.6760864"
       y2="18.313416"><stop
         offset="0"
         style="stop-color:#010101;stop-opacity:0.1"
         id="stop10-6" /><stop
         offset="1"
         style="stop-color:#010101;stop-opacity:0"
         id="stop12-0" /></linearGradient></defs><sodipodi:namedview
     id="namedview57"
     pagecolor="#505050"
     bordercolor="#eeeeee"
     borderopacity="1"
     inkscape:pageshadow="0"
     inkscape:pageopacity="0"
     inkscape:pagecheckerboard="0"
     showgrid="false"
     inkscape:zoom="0.54166667"
     inkscape:cx="272.30769"
     inkscape:cy="335.07692"
     inkscape:window-width="1920"
     inkscape:window-height="1017"
     inkscape:window-x="-8"
     inkscape:window-y="-8"
     inkscape:window-maximized="1"
     inkscape:current-layer="g864" /><g
     id="g26" /><g
     id="g28" /><g
     id="g30" /><g
     id="g32" /><g
     id="g34" /><g
     id="g36" /><g
     id="g38" /><g
     id="g40" /><g
     id="g42" /><g
     id="g44" /><g
     id="g46" /><g
     id="g48" /><g
     id="g50" /><g
     id="g52" /><g
     id="g54" /><g
     id="g864"
     transform="matrix(21.333333,0,0,21.333306,0,3.1059126e-4)"><g
       id="g24"
       transform="scale(1.005663,1.0108468)"><rect
         style="fill:#ef473b;fill-opacity:1;stroke:none;stroke-width:0.0234375;stroke-linecap:round;paint-order:stroke fill markers"
         id="rect1973"
         width="23.864855"
         height="23.7425"
         x="1.3877788e-17"
         y="-1.4558984e-05" /><path
         d="m 16.929611,9.9042035 c -0.374878,0 -0.721985,0.1100465 -1.022217,0.2902825 L 13.639328,7.9264206 c 0.180176,-0.3001709 0.290283,-0.6472779 0.290283,-1.0222168 0,-1.1030273 -0.897461,-2 -2,-2 -0.369873,0 -0.71228,0.1077881 -1.009827,0.2835693 L 8.4660492,2.7337326 8.4947779,4.0467169 10.212875,5.8949264 c -0.175537,0.2973633 -0.2832638,0.6395874 -0.2832638,1.0092774 0,0.9293213 0.6400148,1.7053833 1.4999998,1.9289551 v 6.1420891 c -0.859985,0.223572 -1.4999998,0.999634 -1.4999998,1.928955 0,1.103028 0.8974608,2 1.9999998,2 1.102539,0 2,-0.896972 2,-2 0,-0.929321 -0.640015,-1.705383 -1.5,-1.928955 V 8.8331588 c 0.176758,-0.04596 0.342529,-0.1158447 0.496887,-0.2055054 l 2.279663,2.2796626 c -0.171203,0.294678 -0.27655,0.632202 -0.27655,0.996887 0,1.103028 0.897461,2 2,2 1.102539,0 2,-0.896972 2,-2 0,-1.103027 -0.897461,-1.9999995 -2,-1.9999995 z"
         fill="#ffffff"
         id="path6"
         sodipodi:nodetypes="sccssccccsccsssccccssss" /><linearGradient
         gradientUnits="userSpaceOnUse"
         id="SVGID_1_"
         x1="9.6692657"
         x2="18.306595"
         y1="9.6760864"
         y2="18.313416"><stop
           offset="0"
           style="stop-color:#010101;stop-opacity:0.1"
           id="stop10" /><stop
           offset="1"
           style="stop-color:#010101;stop-opacity:0"
           id="stop12" /></linearGradient><linearGradient
         gradientUnits="userSpaceOnUse"
         id="SVGID_2_"
         x1="2.0138185"
         x2="21.983366"
         y1="7.3399205"
         y2="16.651873"
         gradientTransform="translate(-51.707184,-0.61192012)"><stop
           offset="0"
           style="stop-color:#FFFFFF;stop-opacity:0.2"
           id="stop17" /><stop
           offset="1"
           style="stop-color:#FFFFFF;stop-opacity:0"
           id="stop19" /></linearGradient></g><path
       d="m 18.468741,10.61872 c 0.389691,0.418473 0.568688,1.021765 0.574528,1.370478 0.01847,1.102874 -0.886643,2.064904 -1.989182,2.064904 C 15.951548,14.054102 15,13.103043 15,12.000015 15,11.63533 15.105347,11.297806 15.27655,11.003128 L 12.996887,8.723465 C 12.842529,8.813126 12.676758,8.8830109 12.5,8.9289703 v 6.2087117 c 0.859985,0.223572 1.471263,0.933456 1.5,1.862333 0.03245,1.04894 -0.778471,2.097356 -1.88101,2.097356 -0.511475,0 -1.103623,-0.177034 -1.457688,-0.494112 l 5.797818,5.395516 7.540881,0.0012 -0.01859,-8.872608 c -1.822259,-1.476111 -5.147687,-4.395336 -5.51267,-4.508647 m 5.51267,4.508647 -10.409268,-9.3537311 -0.0024,0.00201 C 13.835144,6.1150665 14,6.5366364 14,7.0000153 14,7.3749542 13.889893,7.7220612 13.709717,8.0222321 l 2.287761,2.2828319 c 0.300232,-0.180237 0.662064,-0.289751 1.036942,-0.289751 0.475098,0 1.051207,0.19769 1.434321,0.603407"
       fill="url(#SVGID_1_)"
       id="path15"
       style="fill:#010101;fill-opacity:0.237251"
       sodipodi:nodetypes="csssccccssccccccccsccsc" /></g></svg>
