<?xml version="1.0" encoding="UTF-8" standalone="no"?>
<svg
   id="Lager_1"
   version="1.1"
   viewBox="0 0 512 512"
   xml:space="preserve"
   sodipodi:docname="Ionic.svg"
   width="512"
   height="512"
   inkscape:version="1.1 (c68e22c387, 2021-05-23)"
   xmlns:inkscape="http://www.inkscape.org/namespaces/inkscape"
   xmlns:sodipodi="http://sodipodi.sourceforge.net/DTD/sodipodi-0.dtd"
   xmlns="http://www.w3.org/2000/svg"
   xmlns:svg="http://www.w3.org/2000/svg"><defs
     id="defs15" /><sodipodi:namedview
     id="namedview13"
     pagecolor="#505050"
     bordercolor="#eeeeee"
     borderopacity="1"
     inkscape:pageshadow="0"
     inkscape:pageopacity="0"
     inkscape:pagecheckerboard="0"
     showgrid="false"
     inkscape:zoom="1.1490485"
     inkscape:cx="299.81328"
     inkscape:cy="259.78016"
     inkscape:window-width="1920"
     inkscape:window-height="1017"
     inkscape:window-x="-8"
     inkscape:window-y="-8"
     inkscape:window-maximized="1"
     inkscape:current-layer="Lager_1" /><style
     type="text/css"
     id="style2">
	.st0{fill:#E6F0FF;}
	.st1{fill:#2F72E1;}
</style><rect
     style="fill:#e6f0ff;fill-opacity:1;stroke-width:0.834131;stroke-linecap:round;stroke-opacity:0.704104;paint-order:stroke fill markers"
     id="rect854"
     width="512"
     height="512"
     x="0"
     y="0" /><path
     style="fill:#666666;fill-opacity:0.311015;stroke:none;stroke-width:1px;stroke-linecap:butt;stroke-linejoin:miter;stroke-opacity:1"
     d="M 343.12125,194.19603 513.23077,377.67562 512,512 347.47803,513.23077 165.05428,311.37401 c -11.18375,-71.67156 9.7234,-120.0898 25.65248,-132.15817 19.57091,-14.82752 69.01375,-41.8507 152.41449,14.98019 z"
     id="path3501"
     sodipodi:nodetypes="cccccsc" /><g
     id="g10"
     transform="matrix(3.7231305,0,0,3.7231305,17.719648,17.719648)"><path
       class="st1"
       d="m 87.4,47.4 c 0.6,-0.8 1,-1.9 1,-3 0,-2.6 -2.1,-4.8 -4.8,-4.8 -1.1,0 -2.2,0.4 -3,1 C 75.9,37.3 70.2,35.3 64,35.3 48.2,35.3 35.3,48.1 35.3,64 c 0,15.9 12.9,28.7 28.7,28.7 15.8,0 28.7,-12.8 28.7,-28.7 0,-6.2 -2,-11.9 -5.3,-16.6 z M 64,88.4 C 50.6,88.4 39.6,77.5 39.6,64 39.6,50.6 50.5,39.6 64,39.6 c 5.6,0 10.7,1.9 14.8,5 0.1,2.4 2.1,4.4 4.5,4.5 3.2,4.1 5.1,9.3 5.1,14.8 0,13.5 -11,24.5 -24.4,24.5 z"
       id="path6" /><circle
       class="st1"
       cx="64"
       cy="64"
       r="13.2"
       id="circle8" /></g></svg>
