<?xml version="1.0" encoding="UTF-8" standalone="no"?>
<svg
   enable-background="new 0 0 512 512"
   height="512px"
   id="Layer_1"
   version="1.1"
   viewBox="0 0 512 512"
   width="512px"
   xml:space="preserve"
   sodipodi:docname="308441_front-end_javascript_js_long shadow_markup language_icon.svg"
   inkscape:version="1.1 (c68e22c387, 2021-05-23)"
   xmlns:inkscape="http://www.inkscape.org/namespaces/inkscape"
   xmlns:sodipodi="http://sodipodi.sourceforge.net/DTD/sodipodi-0.dtd"
   xmlns="http://www.w3.org/2000/svg"
   xmlns:svg="http://www.w3.org/2000/svg"><defs
     id="defs33" /><sodipodi:namedview
     id="namedview31"
     pagecolor="#505050"
     bordercolor="#eeeeee"
     borderopacity="1"
     inkscape:pageshadow="0"
     inkscape:pageopacity="0"
     inkscape:pagecheckerboard="0"
     showgrid="false"
     inkscape:zoom="2.298097"
     inkscape:cx="299.5957"
     inkscape:cy="244.76773"
     inkscape:window-width="1920"
     inkscape:window-height="1017"
     inkscape:window-x="-8"
     inkscape:window-y="-8"
     inkscape:window-maximized="1"
     inkscape:current-layer="g28" /><g
     id="g28"><polyline
       fill="#67A969"
       points="0,512 512,512 512,0 0,0 0,512  "
       id="polyline2" /><path
       d="M 512,364.931 C 473.734,325.406 356.13,172.693 356.13,172.693 H 176.075 l -12.56,101.05 144.952,0.176 -4.997,40.296 -56.9,19.324 -52.016,-19.324 2.139,-17.59 L 155.87,339.307 297,512 H 512 V 364.931"
       fill="#010101"
       opacity="0.191"
       id="path24"
       sodipodi:nodetypes="ccccccccccccc" /><polyline
       fill="#ffffff"
       points="306.814,266.761 342.354,266.937 339.389,290.891 337.761,303.772 329.794,367.988 235.777,400    149.74,367.988 154.996,325.306 190.563,325.306 188.424,342.896 240.44,362.22 297.34,342.896 302.337,302.6 192.923,302.6    157.385,302.424 160.351,278.472 161.979,265.589 169.945,201.374 263.964,169.362 350,201.374 344.745,244.057 309.175,244.057    311.315,226.463 259.3,207.14 202.398,226.463 197.401,266.761 306.814,266.761  "
       id="polyline26"
       transform="translate(6.13,-28.681)" /></g></svg>
