<?xml version="1.0" encoding="UTF-8" standalone="no"?>
<svg
   role="img"
   viewBox="0 0 512 512"
   version="1.1"
   id="svg6"
   sodipodi:docname="Neo4j.svg"
   width="512"
   height="512"
   inkscape:version="1.1 (c68e22c387, 2021-05-23)"
   xmlns:inkscape="http://www.inkscape.org/namespaces/inkscape"
   xmlns:sodipodi="http://sodipodi.sourceforge.net/DTD/sodipodi-0.dtd"
   xmlns="http://www.w3.org/2000/svg"
   xmlns:svg="http://www.w3.org/2000/svg">
  <defs
     id="defs10" />
  <sodipodi:namedview
     id="namedview8"
     pagecolor="#505050"
     bordercolor="#eeeeee"
     borderopacity="1"
     inkscape:pageshadow="0"
     inkscape:pageopacity="0"
     inkscape:pagecheckerboard="0"
     showgrid="false"
     inkscape:zoom="0.38301617"
     inkscape:cx="-121.4048"
     inkscape:cy="573.08285"
     inkscape:window-width="1920"
     inkscape:window-height="1017"
     inkscape:window-x="-8"
     inkscape:window-y="-8"
     inkscape:window-maximized="1"
     inkscape:current-layer="svg6" />
  <title
     id="title2" />
  <rect
     style="fill:#ffffff;fill-opacity:1;stroke-width:0.55798;stroke-linecap:round;paint-order:stroke fill markers"
     id="rect849"
     width="512"
     height="512"
     x="0"
     y="0" />
  <path
     style="fill:#666666;fill-opacity:0.5054;stroke:none;stroke-width:1px;stroke-linecap:butt;stroke-linejoin:miter;stroke-opacity:1"
     d="M 192.54043,350.56646 353.21808,511.4681 512,512 511.58691,337.64488 355.59796,191.01945 C 384.25684,382.37282 192.54043,350.56646 192.54043,350.56646 Z"
     id="path14707"
     sodipodi:nodetypes="cccccc" />
  <g
     id="g14605"
     transform="translate(-14.531151,26.938115)">
    <path
       d="m 379.14508,192.37816 c -0.14193,29.99799 -24.45257,53.94367 -54.65332,53.82201 -29.86619,-0.14193 -53.79159,-24.57422 -53.63952,-54.81552 0.14193,-29.39985 24.91891,-53.59897 54.65331,-53.37594 29.66344,0.22303 53.77132,24.6756 53.63953,54.36945 z m -130.81921,157.9786 c -23.89498,0.0811 -43.96799,-19.92094 -44.2113,-44.03896 -0.24331,-23.62126 19.81956,-43.89702 43.5422,-43.9984 24.71615,-0.10138 44.55598,19.42418 44.55598,43.85647 0.0304,24.15857 -19.78914,44.09978 -43.88688,44.18089 z M 239.30316,135.8392 c 0,15.83537 -13.03732,28.86255 -28.80172,28.78144 -15.70358,-0.071 -29.00448,-13.47324 -28.75103,-28.9842 0.25345,-15.73399 13.60503,-28.81185 29.19709,-28.58882 15.5211,0.23317 28.35566,13.26035 28.35566,28.79158 z m 131.55927,92.33582 c -27.34186,23.88485 -50.6894,28.17317 -75.22307,13.78752 -21.69507,-12.7129 -32.40067,-37.72306 -26.90594,-62.82445 5.95094,-27.16952 25.40553,-41.41324 62.82445,-45.28591 -28.39621,-20.29604 -58.42461,-26.55111 -91.39299,-18.48136 -4.26805,1.03407 -2.44323,2.64599 -1.27738,4.79522 7.96838,14.66951 3.88281,32.51218 -9.54988,42.08234 -13.43269,9.56002 -31.69101,7.6541 -42.76158,-4.96756 -3.2644,-3.7206 -4.32888,-2.72709 -6.63017,0.63869 -25.42581,37.23643 -23.95582,87.98666 3.77129,123.53007 4.98783,6.397 10.4116,12.35808 17.14315,17.33578 7.60341,-32.52232 34.40797,-43.09613 55.95097,-39.41608 26.28752,4.48094 40.57179,26.37876 38.09815,58.66791 35.64479,-4.35929 80.36298,-57.27902 75.953,-89.86217 z m -92.13306,-99.88854 c 4.6837,-0.23317 8.81996,3.70033 8.93147,8.46513 0.0913,4.62287 -3.51784,8.38403 -8.18126,8.54623 -5.12977,0.17235 -8.73886,-3.24412 -8.77941,-8.29278 -0.0507,-4.82563 3.32523,-8.48541 8.0292,-8.71858 z m -78.42664,45.96515 c 4.86618,0.0912 8.64761,4.06529 8.43472,8.88078 -0.19262,4.58233 -4.03488,8.15086 -8.70844,8.09003 -4.66343,-0.0608 -8.3232,-3.71046 -8.39417,-8.38402 -0.071,-4.8966 3.74088,-8.66789 8.66789,-8.58679 z m -7.30941,31.41729 c 0.0304,-4.57218 3.79157,-8.35361 8.4043,-8.46513 4.67356,-0.11151 8.36375,3.39619 8.55637,8.14072 0.20276,4.95743 -3.41646,8.90106 -8.24209,8.9923 -4.79522,0.071 -8.749,-3.86253 -8.71858,-8.66789 z m 5.22101,24.03692 c 0.23317,-4.66343 4.0146,-8.17113 8.6983,-8.07989 4.85604,0.10138 8.33334,3.96391 8.13058,9.03285 -0.19262,4.74453 -3.89295,8.2421 -8.57665,8.07989 -4.84591,-0.14193 -8.49554,-4.14639 -8.25223,-9.03285 z m 20.19465,30.75833 c -5.06894,0.071 -8.68816,-3.49757 -8.62733,-8.49554 0.0608,-4.66343 3.76115,-8.43472 8.29278,-8.47527 4.76481,-0.0405 8.85037,3.96391 8.80982,8.64761 -0.0203,4.58232 -3.76115,8.2421 -8.47527,8.3232 z M 257.2472,137.69443 c -4.75466,0.12166 -8.79968,-3.85239 -8.7794,-8.60706 0.0203,-4.87632 3.89295,-8.51582 8.88078,-8.37389 4.6837,0.1318 8.25224,3.81185 8.2421,8.48541 -0.0101,4.55191 -3.77129,8.38403 -8.34348,8.49554 z m 50.77051,153.30504 c -5.00811,-0.0406 -8.67803,-3.80171 -8.49555,-8.69831 0.18249,-4.52149 4.07543,-8.21168 8.66789,-8.1914 4.85605,0.0405 8.6172,3.98418 8.44486,8.87064 -0.15207,4.6837 -3.75102,8.0292 -8.6172,8.01907 z m 15.55151,-17.94405 c -4.88646,0.11151 -8.84023,-3.72061 -8.77941,-8.51582 0.0507,-4.6837 3.68005,-8.33334 8.36375,-8.44486 4.91688,-0.11151 8.75913,3.60909 8.749,8.52596 0.0101,4.61274 -3.66992,8.3232 -8.33334,8.43472 z"
       id="path4"
       style="fill:#0297c9;fill-opacity:1;stroke-width:10.1379" />
    <ellipse
       style="fill:#6ebc4e;fill-opacity:1;stroke-width:0.511568;stroke-linecap:round;paint-order:stroke fill markers"
       id="path5437"
       cx="210.34618"
       cy="135.92308"
       rx="28.961538"
       ry="28.846155" />
    <ellipse
       style="fill:#6ebc4e;fill-opacity:1;stroke-width:0.958042;stroke-linecap:round;paint-order:stroke fill markers"
       id="ellipse5599"
       cx="324.95197"
       cy="192"
       rx="54.259609"
       ry="54.000004" />
    <ellipse
       style="fill:#6ebc4e;fill-opacity:1;stroke-width:0.789861;stroke-linecap:round;paint-order:stroke fill markers"
       id="ellipse5601"
       cx="247.90131"
       cy="306.5405"
       rx="44.716614"
       ry="44.538464" />
  </g>
</svg>
