<?xml version="1.0" encoding="UTF-8" standalone="no"?>
<svg
   role="img"
   viewBox="0 0 512 512"
   version="1.1"
   id="svg6"
   sodipodi:docname="4691397_postman_icon.svg"
   width="512"
   height="512"
   inkscape:version="1.1 (c68e22c387, 2021-05-23)"
   xmlns:inkscape="http://www.inkscape.org/namespaces/inkscape"
   xmlns:sodipodi="http://sodipodi.sourceforge.net/DTD/sodipodi-0.dtd"
   xmlns="http://www.w3.org/2000/svg"
   xmlns:svg="http://www.w3.org/2000/svg">
  <defs
     id="defs10" />
  <sodipodi:namedview
     id="namedview8"
     pagecolor="#505050"
     bordercolor="#eeeeee"
     borderopacity="1"
     inkscape:pageshadow="0"
     inkscape:pageopacity="0"
     inkscape:pagecheckerboard="0"
     showgrid="false"
     inkscape:zoom="1.4142136"
     inkscape:cx="331.27953"
     inkscape:cy="418.25366"
     inkscape:window-width="1920"
     inkscape:window-height="1017"
     inkscape:window-x="-8"
     inkscape:window-y="-8"
     inkscape:window-maximized="1"
     inkscape:current-layer="svg6" />
  <title
     id="title2" />
  <rect
     style="fill:#ff7f2a;fill-opacity:1;stroke-width:0.501659;stroke-linecap:round;paint-order:stroke fill markers"
     id="rect1072"
     width="512"
     height="512"
     x="0"
     y="0" />
  <path
     style="fill:#333333;fill-opacity:0.367171;stroke:none;stroke-width:1px;stroke-linecap:butt;stroke-linejoin:miter;stroke-opacity:1"
     d="m 178.16165,332.34286 133.78847,179.65384 200.05769,0.0385 -0.0174,-169.11208 L 350.76923,202.15385 284.34454,293.354 Z"
     id="path5707"
     sodipodi:nodetypes="ccccccc" />
  <path
     d="m 270.05879,146.45802 c -60.49157,-7.75935 -115.83783,34.98606 -123.59718,95.4868 -7.75932,60.49156 34.97686,115.82862 95.47761,123.59716 60.50076,7.75933 115.85622,-34.98605 123.59716,-95.48682 7.76855,-60.49154 -34.96766,-115.82859 -95.47759,-123.59714 z m 22.74414,68.8952 a 7.8697917,7.8697917 0 0 0 -5.45823,2.30122 l -40.98735,40.98724 -2.82576,-2.82577 -5.91845,-5.91845 c 40.39826,-40.2786 47.67897,-40.66519 55.18979,-34.54424 z m -44.76117,44.74274 40.86771,-40.86768 a 5.7067494,5.7067494 0 1 1 7.79615,8.3116 l -43.25165,37.96831 z m 3.03749,6.3879 -10.1249,2.1907 a 0.55226595,0.55226595 0 0 1 -0.61655,-0.29453 0.55226595,0.55226595 0 0 1 0.0925,-0.6718 l 5.93685,-5.93688 z m -25.80006,-4.22485 10.78761,-10.7876 8.0907,8.0815 -18.21557,3.92109 a 0.68112821,0.68112821 0 0 1 -0.78232,-0.35903 0.66271924,0.66271924 0 0 1 0.12079,-0.85609 z m -33.55936,55.76047 a 0.69953692,0.69953692 0 0 1 -0.63506,-0.76407 0.70874153,0.70874153 0 0 1 0.20303,-0.42329 h 0.0184 l 8.70742,-8.70738 11.24782,11.24782 z m 22.32076,-11.56077 a 2.098611,2.098611 0 0 0 -1.07684,2.35621 l 1.86842,7.96182 a 1.1505544,1.1505544 0 0 1 -1.94218,1.07685 h -0.0283 l -8.59694,-8.59693 -2.7061,-2.71533 34.62708,-34.59024 16.75206,-3.61737 8.0447,8.04468 c -11.55157,10.14329 -27.34639,20.25896 -46.94262,30.0801 z m 48.59021,-31.55279 h -0.0184 l -7.72252,-7.72252 43.25163,-37.96831 a 8.7626216,8.7626216 0 0 0 1.09536,-1.16886 c -1.36238,12.37998 -18.67579,29.86838 -36.60604,46.85979 z m 33.66061,-59.46067 -0.0283,-0.0184 a 16.77048,16.77048 0 0 1 22.6337,-24.70471 l -14.81915,14.84676 a 1.0953278,1.0953278 0 0 0 0,1.55565 l 11.47794,11.47792 a 16.724458,16.724458 0 0 1 -19.26489,-3.15711 z m 23.72903,0 a 15.776401,15.776401 0 0 1 -2.49448,2.00669 h -0.009 l -11.10974,-11.10974 14.11039,-14.11041 c 6.08414,6.62719 5.86322,16.86254 -0.49704,23.21359 z m -0.92033,-14.21165 a 1.3162341,1.3162341 0 0 0 -0.48779,1.44513 3.8290447,3.8290447 0 0 1 -0.4878,4.14199 1.2886208,1.2886208 0 0 0 0.21074,1.81317 1.2978252,1.2978252 0 0 0 0.77307,0.27628 1.2886208,1.2886208 0 0 0 0.97559,-0.4603 6.3602643,6.3602643 0 0 0 0.80083,-6.91254 1.2702121,1.2702121 0 0 0 -1.78567,-0.30378 z"
     id="path4"
     style="fill:#ffffff;fill-opacity:1;stroke-width:9.20443" />
</svg>
