<?xml version="1.0" encoding="UTF-8" standalone="no"?>
<svg
   enable-background="new 0 0 512 512"
   height="512px"
   id="Layer_1"
   version="1.1"
   viewBox="0 0 512 512"
   width="512px"
   xml:space="preserve"
   sodipodi:docname="308445_long shadow_python_script language_web_web technology_icon.svg"
   inkscape:version="1.1 (c68e22c387, 2021-05-23)"
   xmlns:inkscape="http://www.inkscape.org/namespaces/inkscape"
   xmlns:sodipodi="http://sodipodi.sourceforge.net/DTD/sodipodi-0.dtd"
   xmlns="http://www.w3.org/2000/svg"
   xmlns:svg="http://www.w3.org/2000/svg"><defs
     id="defs27" /><sodipodi:namedview
     id="namedview25"
     pagecolor="#505050"
     bordercolor="#eeeeee"
     borderopacity="1"
     inkscape:pageshadow="0"
     inkscape:pageopacity="0"
     inkscape:pagecheckerboard="0"
     showgrid="false"
     inkscape:zoom="1.625"
     inkscape:cx="336.92308"
     inkscape:cy="231.07692"
     inkscape:window-width="1920"
     inkscape:window-height="1017"
     inkscape:window-x="-8"
     inkscape:window-y="-8"
     inkscape:window-maximized="1"
     inkscape:current-layer="g22" /><g
     id="g22"><polyline
       fill="#4A98C8"
       points="0,512 512,512 512,0 0,0 0,512  "
       id="polyline2" /><path
       d="M 512,354 344.22022,198.68332 177,198.87488 200.25943,350.54002 359,512 H 512 V 354"
       fill="#010101"
       opacity="0.191"
       id="path4"
       sodipodi:nodetypes="ccccccc" /><g
       id="g1326"
       transform="translate(1.4373549,-26.155741)"><path
         d="m 222.766,181.544 c 5.808,0 10.552,4.82 10.552,10.747 0,5.907 -4.745,10.684 -10.552,10.684 -5.83,0 -10.552,-4.776 -10.552,-10.684 -0.001,-5.927 4.722,-10.747 10.552,-10.747 m 30.409,-17.237 c -9.614,0.045 -18.793,0.865 -26.87,2.295 -23.796,4.203 -28.115,13.003 -28.115,29.229 v 21.431 h 56.23 v 7.146 h -56.23 -21.104 c -16.342,0 -30.65,9.822 -35.127,28.509 -5.164,21.418 -5.393,34.783 0,57.146 3.996,16.649 13.542,28.508 29.884,28.508 h 19.333 V 312.88 c 0,-18.558 16.06,-34.931 35.129,-34.931 h 56.164 c 15.636,0 28.118,-12.872 28.118,-28.574 V 195.83 c 0,-15.236 -12.858,-26.684 -28.118,-29.229 -9.658,-1.608 -19.683,-2.338 -29.294,-2.294 z"
         fill="#ffffff"
         id="path6" /><path
         d="m 286.009,360.001 c 5.829,0 10.551,4.775 10.551,10.685 0,5.926 -4.722,10.747 -10.551,10.747 -5.808,0 -10.552,-4.821 -10.552,-10.747 0,-5.91 4.744,-10.685 10.552,-10.685 m 31.589,-135.595 v 24.969 c 0,19.359 -16.414,35.651 -35.129,35.651 h -56.164 c -15.384,0 -28.115,13.167 -28.115,28.575 v 53.545 c 0,15.237 13.25,24.203 28.115,28.572 17.799,5.234 34.867,6.182 56.164,0 14.156,-4.098 28.118,-12.346 28.118,-28.572 V 345.714 H 254.42 v -7.146 h 56.167 28.113 c 16.344,0 22.433,-11.397 28.116,-28.508 5.87,-17.613 5.621,-34.553 0,-57.146 -4.04,-16.269 -11.752,-28.509 -28.116,-28.509 h -21.102 z"
         fill="#ffffff"
         id="path8" /></g></g></svg>
