<?xml version="1.0" encoding="UTF-8" standalone="no"?>
<svg
   role="img"
   viewBox="0 0 512 512"
   version="1.1"
   id="svg6"
   sodipodi:docname="Unity.svg"
   width="512"
   height="512"
   inkscape:version="1.1 (c68e22c387, 2021-05-23)"
   xmlns:inkscape="http://www.inkscape.org/namespaces/inkscape"
   xmlns:sodipodi="http://sodipodi.sourceforge.net/DTD/sodipodi-0.dtd"
   xmlns="http://www.w3.org/2000/svg"
   xmlns:svg="http://www.w3.org/2000/svg">
  <defs
     id="defs10" />
  <sodipodi:namedview
     id="namedview8"
     pagecolor="#505050"
     bordercolor="#eeeeee"
     borderopacity="1"
     inkscape:pageshadow="0"
     inkscape:pageopacity="0"
     inkscape:pagecheckerboard="0"
     showgrid="false"
     inkscape:zoom="1.5320647"
     inkscape:cx="367.1516"
     inkscape:cy="361.27717"
     inkscape:window-width="1920"
     inkscape:window-height="1017"
     inkscape:window-x="-8"
     inkscape:window-y="-8"
     inkscape:window-maximized="1"
     inkscape:current-layer="svg6" />
  <title
     id="title2" />
  <rect
     style="fill:#ffffff;fill-opacity:1;stroke-width:0.994339;stroke-linecap:round;paint-order:stroke fill markers"
     id="rect1295"
     width="512"
     height="512"
     x="0"
     y="0" />
  <path
     style="fill:#4d4d4d;fill-opacity:0.544276;stroke:none;stroke-width:1px;stroke-linecap:butt;stroke-linejoin:miter;stroke-opacity:1"
     d="M 147.07692,256 347.64767,512.07389 512,512 512.0309,366.51529 341.32308,147.07692 341.76923,248.3077 318.62464,331.96464 231.93846,307.3077 Z"
     id="path1604"
     sodipodi:nodetypes="ccccccccc" />
  <path
     d="M 327.7077,321.35384 288.67692,256 327.7077,190.64615 346.76923,256 Z M 241.47692,315 192.46154,266.8923 h 78.06153 l 39.03078,65.35385 z m 0,-118.9077 68.07693,-17.24615 -39.03078,65.35384 h -78.96923 c 0,0.90769 49.92308,-48.10769 49.92308,-48.10769 z m 99.84616,-49.01538 -88.95385,22.6923 -13.61539,22.69231 H 212.43077 L 147.07692,256 l 65.35385,63.53846 h 26.32307 l 12.7077,22.69231 88.95385,22.6923 23.6,-86.23077 L 351.30769,256 364.92308,233.30768 Z"
     id="path4"
     style="fill:#000000;stroke-width:9.07692" />
</svg>
