<?xml version="1.0" encoding="UTF-8" standalone="no"?>
<svg
   height="512"
   style="clip-rule:evenodd;fill-rule:evenodd;image-rendering:optimizeQuality;shape-rendering:geometricPrecision;text-rendering:geometricPrecision"
   version="1.1"
   viewBox="0 0 2209.3817 2209.3818"
   width="512"
   xml:space="preserve"
   id="svg26"
   sodipodi:docname="Wordpress.svg"
   inkscape:version="1.1 (c68e22c387, 2021-05-23)"
   xmlns:inkscape="http://www.inkscape.org/namespaces/inkscape"
   xmlns:sodipodi="http://sodipodi.sourceforge.net/DTD/sodipodi-0.dtd"
   xmlns="http://www.w3.org/2000/svg"
   xmlns:svg="http://www.w3.org/2000/svg"><sodipodi:namedview
     id="namedview28"
     pagecolor="#505050"
     bordercolor="#eeeeee"
     borderopacity="1"
     inkscape:pageshadow="0"
     inkscape:pageopacity="0"
     inkscape:pagecheckerboard="0"
     inkscape:document-units="mm"
     showgrid="false"
     inkscape:zoom="0.8976969"
     inkscape:cx="389.32963"
     inkscape:cy="407.15302"
     inkscape:window-width="1920"
     inkscape:window-height="1017"
     inkscape:window-x="-8"
     inkscape:window-y="-8"
     inkscape:window-maximized="1"
     inkscape:current-layer="_446909456"
     units="px"
     height="512px" /><defs
     id="defs4"><style
       type="text/css"
       id="style2">
   <![CDATA[
    .fil2 {fill:none}
    .fil3 {fill:#1B5F7D}
    .fil0 {fill:#21759A}
    .fil1 {fill:white}
   ]]>
  </style></defs><g
     id="Layer_x0020_1"
     transform="scale(3.1250095)"><g
       id="_446909456"><rect
         class="fil0"
         height="707"
         rx="0"
         ry="0"
         width="707"
         id="rect6"
         x="0"
         y="0" /><line
         class="fil2"
         x1="229.03375"
         x2="346.52579"
         y1="435.68552"
         y2="553.17755"
         id="line10"
         style="stroke-width:0.581644" /><line
         class="fil2"
         x1="448.89511"
         x2="550.10107"
         y1="246.65129"
         y2="347.8573"
         id="line12"
         style="stroke-width:0.581644" /><path
         class="fil3"
         d="m 489.61012,352.51045 c 0,22.10246 -8.14301,49.43971 -19.77589,68.05231 -16.86767,28.50055 -44.78657,52.92958 -76.19533,63.98082 -14.54109,4.65314 -28.50054,7.56136 -43.04164,8.14301 H 337.8011 c -16.28602,-0.58165 -32.57205,-4.65315 -48.85807,-11.05123 l -12.21452,-5.81644 c -6.39808,-4.07151 -7.56137,-4.07151 -16.28603,-9.88794 -1.16328,-0.58165 -2.32657,-1.74494 -3.48986,-2.32658 L 552.64283,707.01756 662.79507,707 H 707 V 662.79507 L 706.72829,459.48401 448.89506,246.65128 c 5.23479,5.2348 10.46958,11.63288 14.54109,17.44932 3.48986,5.23479 10.46959,16.28602 12.79616,22.10246 10.46959,26.17397 13.37781,36.06191 13.37781,66.30739 z"
         id="path14"
         sodipodi:nodetypes="scccccccccccccccss"
         style="stroke-width:0.581644" /><g
         id="g853"
         transform="translate(9.009965,5.933515)"><path
           class="fil3"
           d="m 382.00606,456.62469 c -8.14302,-21.52082 -16.28603,-47.11315 -25.01069,-68.63397 L 354.6688,381.011 c -1.16329,-3.48986 -6.97973,-18.6126 -6.97973,-20.93918 h -1.74493 c 0,2.32658 -3.48986,11.63288 -4.65315,14.5411 -4.65315,15.70438 -31.40876,89.57313 -33.15369,98.29779 l 14.54109,2.90822 c 12.21452,2.32657 15.70438,1.74493 27.33726,1.74493 11.05123,0 19.19424,-2.32657 29.08219,-4.65315 3.48986,-0.58164 5.23479,-1.74493 8.14301,-2.32657 -1.74493,-4.07151 -3.48986,-9.3063 -5.23479,-13.95945 z"
           id="path16"
           style="stroke-width:0.581644" /><g
           id="g845"><path
             class="fil1"
             d="m 350.01565,477.56386 c -11.63288,0 -15.12274,0.58164 -27.33726,-1.74493 l -14.54109,-2.90822 c 1.74493,-8.72466 28.50054,-82.59341 33.15369,-98.29779 1.16329,-2.90822 4.65315,-12.21452 5.2348,-14.5411 h 0.58164 c 0.58164,2.32658 6.39808,17.44932 7.56137,20.93918 0.58164,2.32657 1.74493,4.65315 2.32657,6.97972 8.72466,21.52082 16.86767,47.11315 25.01069,68.63397 1.74493,4.65315 3.48986,9.88794 5.23479,13.95945 -2.90822,0.58164 -4.65315,1.74493 -8.14301,2.32657 -9.88795,2.32658 -18.03096,4.65315 -29.08219,4.65315 z M 338.38277,202.44637 h 12.79617 c 9.3063,0.58164 19.19424,1.74493 29.66383,4.65315 13.3778,3.48986 14.54109,4.65315 25.59232,9.3063 l 11.05123,5.81644 c 17.44932,10.46958 34.31698,25.01068 45.94986,41.87835 3.48986,5.23479 10.46959,16.28602 12.79616,22.10246 10.46959,26.17397 13.37781,35.48027 13.37781,66.30739 0,22.10246 -8.14301,49.43971 -19.77589,68.05231 -16.86767,28.50055 -44.78657,52.92958 -76.19533,63.98082 -14.54109,4.65314 -28.50054,7.56136 -43.04164,8.14301 h -12.79616 c -16.28602,-0.58165 -32.57205,-4.65315 -48.85807,-11.05123 l -12.21452,-5.81644 c -6.39808,-4.07151 -7.56137,-4.07151 -16.28603,-9.88794 -27.33725,-18.6126 -48.27643,-49.43972 -56.41944,-82.59342 -4.65315,-17.44931 -4.65315,-23.84739 -4.65315,-40.71506 0,-11.63287 2.32657,-22.10246 4.65315,-31.40876 2.90822,-11.63288 8.72466,-26.17397 15.12274,-36.64356 16.86767,-28.50054 44.78657,-52.92958 76.19533,-63.98081 14.54109,-4.65315 28.50054,-7.56137 43.04163,-8.14301 z M 214.49266,353.0921 c 0,-19.77589 1.16328,-33.73534 8.72465,-52.92958 0.58165,-1.74493 1.16329,-3.48986 2.32658,-4.65315 l 30.82712,83.7567 c 4.65315,14.54109 10.46958,28.50054 15.12273,42.45999 2.90822,6.97973 5.2348,13.95945 8.14302,20.93918 l 7.56137,21.52081 c -8.72466,-1.74493 -32.57205,-20.93917 -38.97014,-29.08218 -3.48986,-4.65315 -5.81643,-5.81644 -10.46958,-13.37781 -12.79617,-18.6126 -23.26575,-43.62328 -23.26575,-68.63396 z m 244.87201,-66.30739 1.74493,2.32658 c 7.56137,15.12273 13.37781,36.06191 13.37781,52.92958 0,19.19424 -0.58164,27.9189 -6.39808,47.11314 -2.32658,5.23479 -3.48986,9.88794 -6.39808,15.12274 -6.97973,14.54109 -15.12274,25.01068 -26.75561,36.64355 l -11.63288,9.88795 c -4.07151,3.48986 -8.14301,6.39808 -12.79616,8.72465 1.16329,-5.81643 35.48027,-104.11423 40.13342,-115.7471 6.97972,-18.03096 9.3063,-27.9189 9.3063,-49.43972 0,-3.48986 -0.58165,-4.65315 -0.58165,-7.56137 z m -50.603,-13.95945 c 0,24.42904 23.26575,36.64356 23.26575,65.1441 0,12.79616 -0.58165,14.5411 -4.07151,27.33726 -2.32657,6.97972 -4.07151,13.3778 -6.39808,19.77589 l -8.72466,29.66383 c -0.58164,2.90821 -2.32657,7.56136 -2.90822,10.46958 -1.74493,-1.16328 -5.23479,-14.54109 -6.39808,-16.86767 L 368.62825,304.23402 c -1.16329,-2.90821 -5.23479,-15.12273 -5.81644,-17.44931 3.48986,0 9.3063,-0.58164 12.21452,-1.16328 5.81644,-0.58165 6.97973,-1.16329 6.97973,-6.39809 0,-2.32657 -1.74494,-4.65315 -4.07151,-4.65315 -9.88794,0 -18.03096,1.16329 -28.50054,1.16329 h -13.95945 c -11.05124,0 -19.77589,-1.16329 -30.24548,-1.16329 -1.16329,0 -3.48986,2.32658 -3.48986,5.81644 0,4.65315 2.90822,4.65315 6.97972,5.2348 2.90822,0 9.88795,0 11.63288,1.74493 l 18.03095,48.85807 c 1.74494,5.23479 2.32658,4.65315 0.58165,9.88794 l -19.77589,59.90931 c -1.16329,3.48986 -6.39808,18.03096 -6.39808,20.35753 -1.74493,-1.16329 -1.74493,-1.74493 -2.32658,-3.48986 l -4.0715,-13.37781 c -2.32658,-5.81644 -4.07151,-11.05123 -5.81644,-17.44931 -4.07151,-11.63287 -8.14301,-23.26575 -12.21452,-34.89862 -1.74493,-6.39809 -22.10246,-63.98082 -23.26575,-70.3789 2.90822,0 15.12274,-0.58164 17.44932,-2.32657 2.90821,-2.90822 2.90821,-6.97973 0,-8.72466 -2.32658,-2.32657 -9.3063,-1.16329 -12.21452,-0.58164 l -34.31698,0.58164 c 5.81643,-8.72465 11.05123,-15.12274 18.03095,-22.10246 1.74493,-1.74493 3.48986,-2.90822 5.2348,-4.65315 3.48986,-3.48986 13.3778,-10.46959 18.03095,-12.79616 4.07151,-2.32658 8.14301,-4.65315 12.79616,-6.97973 40.13342,-18.03095 88.40985,-15.70438 125.05341,9.3063 4.65315,2.90822 13.95945,8.72466 16.28602,12.79616 -7.56137,0 -11.63287,2.32658 -15.70438,6.39809 -3.48986,2.90821 -6.97972,8.72465 -6.97972,15.12273 z"
             id="path8"
             style="stroke-width:0.581644" /><path
             class="fil3"
             d="m 271.49374,421.72606 c -4.65315,-13.95945 -10.46958,-27.9189 -15.12273,-42.45999 l -30.82712,-83.7567 c -1.16329,1.16329 -1.74493,2.90822 -2.32658,4.65315 -7.56137,19.19424 -8.72465,33.15369 -8.72465,52.92958 0,25.01068 10.46958,50.02136 23.26575,68.63396 4.65315,7.56137 6.97972,8.72466 10.46958,13.37781 6.39809,8.14301 30.24548,27.33725 38.97014,29.08218 l -8.14302,-21.52081 c -2.32657,-6.97973 -4.65315,-13.95945 -7.56137,-20.93918 z"
             id="path18"
             style="stroke-width:0.581644" /><path
             class="fil3"
             d="m 288.36141,357.16361 12.21452,34.89862 5.81644,17.44931 4.0715,13.37781 c 0.58165,1.74493 0.58165,2.32657 2.32658,3.48986 0,-2.32657 5.23479,-16.86767 6.39808,-20.35753 l 19.77589,-59.90931 c 1.74493,-5.23479 1.16329,-4.65315 -0.58165,-9.88794 l -18.03095,-48.85807 c -1.74493,-1.74493 -8.72466,-1.74493 -11.63288,-1.74493 -4.0715,-0.58165 -6.97972,-0.58165 -6.97972,-5.2348 0,-3.48986 2.32657,-5.81644 3.48986,-5.81644 10.46959,0 19.19424,1.16329 30.24548,1.16329 h 13.95945 c 10.46958,0 18.6126,-1.16329 28.50054,-1.16329 2.32657,0 4.07151,2.32658 4.07151,4.65315 0,5.2348 -1.16329,5.81644 -6.97973,6.39809 -2.90822,0.58164 -8.72466,1.16328 -12.21452,1.16328 0.58165,2.32658 4.65315,14.5411 5.81644,17.44931 l 34.89862,104.11423 c 1.16329,2.32658 4.65315,15.70439 6.39808,16.86767 0.58165,-2.90822 2.32658,-7.56137 2.90822,-10.46958 l 8.72466,-29.66383 6.39808,-19.77589 c 3.48986,-12.79616 4.07151,-14.5411 4.07151,-27.33726 0,-28.50054 -23.26575,-40.71506 -23.26575,-65.1441 0,-6.39808 3.48986,-12.21452 6.97972,-15.12273 4.07151,-4.07151 8.14301,-6.39809 15.70438,-6.39809 -2.32657,-4.0715 -11.63287,-9.88794 -16.28602,-12.79616 -36.64356,-25.01068 -84.91999,-27.33725 -125.05341,-9.3063 -4.65315,2.32658 -8.72465,4.65315 -12.79616,6.97973 -4.65315,2.32657 -14.54109,9.3063 -18.03095,12.79616 -1.74494,1.74493 -3.48987,2.90822 -5.2348,4.65315 -6.97972,6.97972 -12.21452,13.37781 -18.03095,22.10246 l 34.31698,-0.58164 c 2.90822,-0.58165 9.88794,-1.74493 12.21452,0.58164 2.90821,1.74493 2.90821,5.81644 0,8.72466 -2.32658,1.74493 -14.5411,2.32657 -17.44932,2.32657 1.16329,6.39808 21.52082,63.98081 23.26575,70.3789 z"
             id="path20"
             style="stroke-width:0.581644" /><path
             class="fil3"
             d="m 450.64002,343.7858 c -4.65315,11.63287 -38.97013,109.93067 -40.13342,115.7471 4.65315,-2.32657 8.72465,-5.23479 12.79616,-8.72465 l 11.63288,-9.88795 c 11.63287,-11.63287 19.77588,-22.10246 26.75561,-36.64355 2.90822,-5.2348 4.0715,-9.88795 6.39808,-15.12274 5.81644,-19.19424 6.39808,-27.9189 6.39808,-47.11314 0,-16.86767 -5.81644,-37.80685 -13.37781,-52.92958 l -1.74493,-2.32658 c 0,2.90822 0.58165,4.07151 0.58165,7.56137 0,21.52082 -2.32658,31.40876 -9.3063,49.43972 z"
             id="path22"
             style="stroke-width:0.581644" /></g></g></g></g></svg>
