<svg xmlns="http://www.w3.org/2000/svg" viewBox="0 0 345.68 83.48"><defs><style>.cls-1{fill:#1f1f1f;}.cls-2{fill:#ffcc07;}.cls-3{fill:#2e2d2c;}.cls-4{fill:#222;}</style></defs><g id="Capa_2" data-name="Capa 2"><g id="Capa_1-2" data-name="Capa 1"><path class="cls-1" d="M27.14,49.9,40.9,61a1.58,1.58,0,0,0,2.26-.28L53.88,46.68a1.59,1.59,0,0,0-.27-2.2L39.86,33.35a1.59,1.59,0,0,0-2.27.27L26.88,47.7A1.59,1.59,0,0,0,27.14,49.9Z"/><path class="cls-2" d="M43.23,70.85h0l-17.32-14-2.48-2a1.59,1.59,0,0,0-2.25.25L2.54,78.82a1.58,1.58,0,0,0,.11,2.09,8.85,8.85,0,0,0,6.24,2.57H54.34a1.59,1.59,0,0,0,1-2.82Z"/><path class="cls-2" d="M48.16,66.92l20,16.19a1.65,1.65,0,0,0,1,.37h.55a8.89,8.89,0,0,0,8.89-8.89V32.07a8.76,8.76,0,0,0-.37-2.51A1.59,1.59,0,0,0,75.49,29l-14,17.82L47.89,64.72A1.59,1.59,0,0,0,48.16,66.92Z"/><path class="cls-2" d="M19.25,47.55,32.86,29.66a1.59,1.59,0,0,0-.26-2.19L16.92,14.78,3.5,25A8.9,8.9,0,0,0,0,32.07V67.48a1.59,1.59,0,0,0,2.84,1Z"/><path class="cls-2" d="M37.53,23.53h0l19.8,16a1.57,1.57,0,0,0,2.24-.25L71.43,24.2A1.58,1.58,0,0,0,71.15,22L44.71,1.82a8.88,8.88,0,0,0-10.78,0L23.58,9.71a1.58,1.58,0,0,0,0,2.49Z"/><path class="cls-1" d="M132.71,80.65a3.32,3.32,0,0,1-2.52,1.16,3.23,3.23,0,0,1-2.37-1,3.27,3.27,0,0,1,0-4.69,3.23,3.23,0,0,1,2.37-1,3.19,3.19,0,0,1,2.35,1l-.39.4a2.66,2.66,0,0,0-2-.81,2.59,2.59,0,0,0-1.92.81,2.65,2.65,0,0,0-.8,1.94,2.68,2.68,0,0,0,.8,1.94,2.72,2.72,0,0,0,3.81,0V78.78h-1.89V78.2h2.52Z"/><path class="cls-1" d="M139.91,79.21a1.36,1.36,0,0,1,0,.29H135.3a2,2,0,0,0,.66,1.24,1.93,1.93,0,0,0,1.32.49,1.84,1.84,0,0,0,1-.29,2,2,0,0,0,.74-.77l.47.33a2.79,2.79,0,0,1-1,1,2.46,2.46,0,0,1-1.29.36,2.56,2.56,0,0,1-1.85-.76,2.58,2.58,0,0,1,0-3.68,2.63,2.63,0,0,1,3.7,0A2.48,2.48,0,0,1,139.91,79.21Zm-4.61-.29h4a2,2,0,0,0-.68-1.23,1.91,1.91,0,0,0-1.31-.5,1.94,1.94,0,0,0-1.32.5A2,2,0,0,0,135.3,78.92Z"/><path class="cls-1" d="M141.77,81.28l.32-.51a3.11,3.11,0,0,0,1.62.46,1.79,1.79,0,0,0,1-.25.81.81,0,0,0,.37-.69.73.73,0,0,0-.18-.52,1.06,1.06,0,0,0-.47-.28,4.8,4.8,0,0,0-.64-.13l-.7-.12a3.58,3.58,0,0,1-.63-.2,1.06,1.06,0,0,1-.47-.42,1.25,1.25,0,0,1-.18-.7,1.11,1.11,0,0,1,.55-1,2.49,2.49,0,0,1,1.33-.35,3.54,3.54,0,0,1,1.87.49l-.28.5a3.16,3.16,0,0,0-1.59-.41,1.65,1.65,0,0,0-.89.21.57.57,0,0,0-.34.51.66.66,0,0,0,.24.55,1.25,1.25,0,0,0,.61.25c.24,0,.5.07.78.13a7.43,7.43,0,0,1,.78.19,1.11,1.11,0,0,1,.61.44,1.43,1.43,0,0,1,.24.86,1.27,1.27,0,0,1-.55,1.08,2.45,2.45,0,0,1-1.48.41A3.5,3.5,0,0,1,141.77,81.28Z"/><path class="cls-1" d="M147.43,76.76H148V75.65h.63v1.11h1v.58h-1v3.38c0,.34.17.51.53.51a.65.65,0,0,0,.36-.12l.22.53a1.25,1.25,0,0,1-1.42-.11,1,1,0,0,1-.32-.8V77.34h-.58Z"/><path class="cls-1" d="M151.55,75.9a.38.38,0,0,1-.13-.3.44.44,0,0,1,.43-.44.46.46,0,0,1,.31.13.45.45,0,0,1,.12.31.41.41,0,0,1-.12.3.42.42,0,0,1-.31.13A.38.38,0,0,1,151.55,75.9Zm0,.86h.62v4.9h-.62Z"/><path class="cls-1" d="M158.71,81.05a2.68,2.68,0,0,1-3.74,0,2.52,2.52,0,0,1-.77-1.84,2.48,2.48,0,0,1,.78-1.84,2.67,2.67,0,0,1,3.73,0,2.58,2.58,0,0,1,0,3.68Zm-1.87.18a1.89,1.89,0,0,0,1.42-.59,2.05,2.05,0,0,0,0-2.86,2,2,0,0,0-2.83,0,2,2,0,0,0,0,2.86A1.87,1.87,0,0,0,156.84,81.23ZM156,76v-.45l1.73-.59v.62Z"/><path class="cls-1" d="M161.51,81.66v-4.9h.63v.83h0a1.67,1.67,0,0,1,.65-.68,1.84,1.84,0,0,1,1-.3,1.87,1.87,0,0,1,1.42.54,2,2,0,0,1,.51,1.42v3.09h-.63V78.57a1.36,1.36,0,0,0-.37-1,1.33,1.33,0,0,0-1-.38,1.73,1.73,0,0,0-1.12.43,1.31,1.31,0,0,0-.51,1v3Z"/><path class="cls-1" d="M175.91,81.66v-1h0a2.78,2.78,0,0,1-.85.82,2.29,2.29,0,0,1-1.2.32,2.47,2.47,0,0,1-1.84-.76,2.6,2.6,0,0,1,1.84-4.44,2.3,2.3,0,0,1,1.21.32,2.74,2.74,0,0,1,.84.82h0V75.31h.63v6.35Zm0-2.45a2,2,0,0,0-2-2,1.89,1.89,0,0,0-1.41.59,2.05,2.05,0,0,0,0,2.86,1.86,1.86,0,0,0,1.41.59,1.93,1.93,0,0,0,1.43-.59A2,2,0,0,0,175.91,79.21Z"/><path class="cls-1" d="M183.81,79.21a1.36,1.36,0,0,1,0,.29h-4.57a2,2,0,0,0,.66,1.24,1.91,1.91,0,0,0,1.32.49,1.84,1.84,0,0,0,1-.29,2,2,0,0,0,.74-.77l.47.33a2.88,2.88,0,0,1-1,1,2.46,2.46,0,0,1-1.29.36,2.54,2.54,0,0,1-1.85-.76,2.58,2.58,0,0,1,0-3.68,2.63,2.63,0,0,1,3.7,0A2.47,2.47,0,0,1,183.81,79.21Zm-4.6-.29h4a2,2,0,0,0-.68-1.23,2,2,0,0,0-2.63,0A2,2,0,0,0,179.21,78.92Z"/><path class="cls-1" d="M189,76.76h.58V75.65h.63v1.11h1v.58h-1v3.38a.46.46,0,0,0,.53.51.7.7,0,0,0,.37-.12l.21.53a1.23,1.23,0,0,1-1.41-.11,1,1,0,0,1-.33-.8V77.34H189Z"/><path class="cls-1" d="M195,76.61a1.73,1.73,0,0,1,.58.1l-.2.56a1.31,1.31,0,0,0-.38-.06,1.22,1.22,0,0,0-.93.41,1.33,1.33,0,0,0-.38,1v3.08h-.63v-4.9h.63v.72h0a1.73,1.73,0,0,1,.52-.62A1.31,1.31,0,0,1,195,76.61Z"/><path class="cls-1" d="M201.52,81.66v-1h0a2.89,2.89,0,0,1-.85.82,2.3,2.3,0,0,1-1.21.32,2.46,2.46,0,0,1-1.83-.76,2.53,2.53,0,0,1-.75-1.84,2.56,2.56,0,0,1,.74-1.84,2.52,2.52,0,0,1,1.84-.76,2.25,2.25,0,0,1,1.21.32,2.67,2.67,0,0,1,.85.82h0v-1h.63v4.9Zm0-2.45a1.92,1.92,0,0,0-.59-1.43,2,2,0,0,0-2.84,2.86,2,2,0,0,0,2.84,0A1.92,1.92,0,0,0,201.52,79.21ZM198.66,76v-.45l1.72-.59v.62Z"/><path class="cls-1" d="M210.76,81.66h-.63v-3.4a1,1,0,0,0-.33-.77,1.15,1.15,0,0,0-.8-.3,1.08,1.08,0,0,0-.8.34,1.1,1.1,0,0,0-.33.81v3.32h-.63V78.34a1.1,1.1,0,0,0-.33-.81,1,1,0,0,0-.79-.34,1.09,1.09,0,0,0-.8.33,1,1,0,0,0-.34.78v3.36h-.63v-4.9H205v.61h0a1.32,1.32,0,0,1,1.2-.76,1.66,1.66,0,0,1,1.46.81,1.94,1.94,0,0,1,.62-.59,1.64,1.64,0,0,1,.81-.22,1.62,1.62,0,0,1,1.19.47,1.57,1.57,0,0,1,.48,1.18Z"/><path class="cls-1" d="M213,75.9a.38.38,0,0,1-.13-.3.42.42,0,0,1,.13-.31.43.43,0,0,1,.3-.13.46.46,0,0,1,.31.13.45.45,0,0,1,.12.31.41.41,0,0,1-.12.3.42.42,0,0,1-.31.13A.39.39,0,0,1,213,75.9Zm0,.86h.62v4.9H213Z"/><path class="cls-1" d="M215.45,76.76H216V75.65h.63v1.11h1v.58h-1v3.38q0,.51.54.51a.65.65,0,0,0,.36-.12l.21.53a1.2,1.2,0,0,1-.57.17,1.24,1.24,0,0,1-.84-.28,1,1,0,0,1-.33-.8V77.34h-.57Z"/><path class="cls-1" d="M224.5,79.21a1.36,1.36,0,0,1,0,.29h-4.58a1.94,1.94,0,0,0,.67,1.24,1.89,1.89,0,0,0,1.31.49,1.84,1.84,0,0,0,1-.29,2,2,0,0,0,.74-.77l.47.33a2.79,2.79,0,0,1-1,1,2.46,2.46,0,0,1-1.29.36,2.56,2.56,0,0,1-1.85-.76,2.58,2.58,0,0,1,0-3.68,2.63,2.63,0,0,1,3.7,0A2.48,2.48,0,0,1,224.5,79.21Zm-4.61-.29h4a2,2,0,0,0-.68-1.23,2,2,0,0,0-2.62,0A1.94,1.94,0,0,0,219.89,78.92Z"/><path class="cls-1" d="M226.36,81.28l.32-.51a3.12,3.12,0,0,0,1.63.46,1.76,1.76,0,0,0,1-.25.81.81,0,0,0,.37-.69.73.73,0,0,0-.18-.52,1.06,1.06,0,0,0-.47-.28,4.8,4.8,0,0,0-.64-.13q-.35,0-.69-.12a3.44,3.44,0,0,1-.64-.2,1.06,1.06,0,0,1-.47-.42,1.25,1.25,0,0,1-.18-.7,1.1,1.1,0,0,1,.56-1,2.44,2.44,0,0,1,1.33-.35,3.53,3.53,0,0,1,1.86.49l-.28.5a3.15,3.15,0,0,0-1.58-.41,1.66,1.66,0,0,0-.9.21.57.57,0,0,0-.34.51.66.66,0,0,0,.24.55,1.25,1.25,0,0,0,.61.25c.24,0,.5.07.78.13a7.43,7.43,0,0,1,.78.19,1.11,1.11,0,0,1,.61.44,1.43,1.43,0,0,1,.24.86,1.27,1.27,0,0,1-.55,1.08,2.44,2.44,0,0,1-1.47.41A3.56,3.56,0,0,1,226.36,81.28Z"/><path class="cls-1" d="M235.84,75.9a.38.38,0,0,1-.13-.3.42.42,0,0,1,.13-.31.46.46,0,0,1,.31-.13.43.43,0,0,1,.3.13.46.46,0,0,1,.13.31.42.42,0,0,1-.13.3.39.39,0,0,1-.3.13A.42.42,0,0,1,235.84,75.9Zm0,.86h.63v4.9h-.63Z"/><path class="cls-1" d="M238.66,81.66v-4.9h.62v.83h0a1.64,1.64,0,0,1,.64-.68,2,2,0,0,1,2.43.24,1.94,1.94,0,0,1,.52,1.42v3.09h-.63V78.57a1.4,1.4,0,0,0-.37-1,1.34,1.34,0,0,0-1-.38,1.75,1.75,0,0,0-1.12.43,1.31,1.31,0,0,0-.51,1v3Z"/><path class="cls-1" d="M251.5,81.66h-.62v-3.4a1,1,0,0,0-.34-.77,1.13,1.13,0,0,0-.79-.3,1.16,1.16,0,0,0-1.14,1.15v3.32H248V78.34a1.13,1.13,0,0,0-.32-.81,1.07,1.07,0,0,0-.8-.34,1.11,1.11,0,0,0-.8.33,1,1,0,0,0-.34.78v3.36h-.62v-4.9h.62v.61h0a1.32,1.32,0,0,1,1.2-.76,1.65,1.65,0,0,1,1.46.81,1.94,1.94,0,0,1,.62-.59,1.64,1.64,0,0,1,.81-.22,1.66,1.66,0,0,1,1.2.47,1.6,1.6,0,0,1,.47,1.18Z"/><path class="cls-1" d="M258.05,81.05a2.68,2.68,0,0,1-3.74,0,2.56,2.56,0,0,1,0-3.68,2.68,2.68,0,0,1,3.74,0,2.58,2.58,0,0,1,0,3.68Zm-1.87.18a1.89,1.89,0,0,0,1.42-.59,2.05,2.05,0,0,0,0-2.86,2,2,0,0,0-2.83,0,2,2,0,0,0,0,2.86A1.89,1.89,0,0,0,256.18,81.23Z"/><path class="cls-1" d="M261.48,80.67v1h-.63V75.31h.63v2.44h0a2.74,2.74,0,0,1,.84-.82,2.3,2.3,0,0,1,1.21-.32,2.61,2.61,0,0,1,1.84,4.44,2.47,2.47,0,0,1-1.84.76,2.26,2.26,0,0,1-1.2-.32,2.67,2.67,0,0,1-.85-.82Zm0-1.46a2,2,0,0,0,2,2,1.87,1.87,0,0,0,1.41-.59,2.05,2.05,0,0,0,0-2.86,1.91,1.91,0,0,0-1.41-.59,2,2,0,0,0-1.43.59A1.92,1.92,0,0,0,261.48,79.21Z"/><path class="cls-1" d="M268.18,75.9a.38.38,0,0,1-.13-.3.44.44,0,0,1,.43-.44.46.46,0,0,1,.31.13.45.45,0,0,1,.12.31.41.41,0,0,1-.12.3.42.42,0,0,1-.31.13A.38.38,0,0,1,268.18,75.9Zm0,.86h.62v4.9h-.62Z"/><path class="cls-1" d="M271,81.66V75.31h.62v6.35Z"/><path class="cls-1" d="M273.83,75.9a.41.41,0,0,1-.12-.3.45.45,0,0,1,.12-.31.46.46,0,0,1,.31-.13.44.44,0,0,1,.43.44.44.44,0,0,1-.43.43A.42.42,0,0,1,273.83,75.9Zm0,.86h.62v4.9h-.62Z"/><path class="cls-1" d="M281.14,81.66v-1h0a2.81,2.81,0,0,1-.86.82,2.24,2.24,0,0,1-1.2.32,2.46,2.46,0,0,1-1.83-.76,2.5,2.5,0,0,1-.76-1.84,2.58,2.58,0,0,1,2.59-2.6,2.28,2.28,0,0,1,1.21.32,2.77,2.77,0,0,1,.85.82h0v-1h.63v4.9Zm0-2.45a1.92,1.92,0,0,0-.59-1.43,2,2,0,0,0-1.42-.59,1.92,1.92,0,0,0-1.42.59,2.05,2.05,0,0,0,0,2.86,1.88,1.88,0,0,0,1.42.59,2,2,0,0,0,2-2Z"/><path class="cls-1" d="M285.91,76.61a1.73,1.73,0,0,1,.58.1l-.2.56a1.31,1.31,0,0,0-.38-.06,1.22,1.22,0,0,0-.93.41,1.33,1.33,0,0,0-.38,1v3.08H284v-4.9h.63v.72h0a1.73,1.73,0,0,1,.52-.62A1.31,1.31,0,0,1,285.91,76.61Z"/><path class="cls-1" d="M288.27,75.9a.42.42,0,0,1-.13-.3.44.44,0,0,1,.44-.44.44.44,0,0,1,.43.44.44.44,0,0,1-.43.43A.42.42,0,0,1,288.27,75.9Zm0,.86h.63v4.9h-.63Z"/><path class="cls-1" d="M295.44,81.05a2.68,2.68,0,0,1-3.74,0,2.56,2.56,0,0,1,0-3.68,2.68,2.68,0,0,1,3.74,0,2.58,2.58,0,0,1,0,3.68Zm-1.87.18a1.89,1.89,0,0,0,1.42-.59,2.05,2.05,0,0,0,0-2.86,2,2,0,0,0-3.42,1.43,2,2,0,0,0,.58,1.43A1.89,1.89,0,0,0,293.57,81.23Z"/><path class="cls-1" d="M298.07,81.28l.32-.51a3.12,3.12,0,0,0,1.63.46,1.73,1.73,0,0,0,1-.25.79.79,0,0,0,.37-.69.73.73,0,0,0-.18-.52,1,1,0,0,0-.46-.28,5.15,5.15,0,0,0-.64-.13c-.24,0-.47-.07-.7-.12a4,4,0,0,1-.64-.2,1,1,0,0,1-.46-.42,1.25,1.25,0,0,1-.18-.7,1.09,1.09,0,0,1,.55-1A2.46,2.46,0,0,1,300,76.6a3.59,3.59,0,0,1,1.87.49l-.29.5a3.13,3.13,0,0,0-1.58-.41,1.71,1.71,0,0,0-.9.21.57.57,0,0,0-.34.51.66.66,0,0,0,.24.55,1.34,1.34,0,0,0,.61.25c.24,0,.5.07.78.13a7.64,7.64,0,0,1,.79.19,1.13,1.13,0,0,1,.6.44,1.43,1.43,0,0,1,.24.86,1.24,1.24,0,0,1-.55,1.08,2.42,2.42,0,0,1-1.47.41A3.56,3.56,0,0,1,298.07,81.28Z"/><path class="cls-1" d="M147.05,28.4h8.18V52.84a16.34,16.34,0,1,1-32.67,0V28.4h8.17V52.84a8.16,8.16,0,1,0,16.32,0Z"/><path class="cls-1" d="M186.67,28.4h8.17V69.16h-8.17L166.26,44.35V69.16h-8.17V28.4h8.17l20.41,25.29Z"/><path class="cls-1" d="M226.68,32.55a13.69,13.69,0,0,1,4.17,10.07,14.24,14.24,0,0,1-14.22,14.22q-.34,0-.66,0l-.23,0h-9.48V69.15H198.1V28.4h18.53A13.72,13.72,0,0,1,226.68,32.55Zm-10.05,16.1a6,6,0,0,0,4.25-10.3,5.81,5.81,0,0,0-4.25-1.75v-.06H206.26V48.68h10.37Z"/><path class="cls-1" d="M341.51,32.55a13.69,13.69,0,0,1,4.17,10.07,14.24,14.24,0,0,1-14.22,14.22q-.34,0-.66,0l-.23,0h-9.48V69.15h-8.17V28.4h18.54A13.72,13.72,0,0,1,341.51,32.55Zm-10.05,16.1a6,6,0,0,0,4.25-10.3,5.82,5.82,0,0,0-4.25-1.75v-.06H321.09V48.68h10.37Z"/><path class="cls-3" d="M113.13,53.71c4-2.66,6.57-6.81,6.57-11.08A14.2,14.2,0,0,0,105.46,28.4H86.91V69.18h8.87V56.39H106c3.24,2.52,4.62,8.83,4.62,12.79h8.77C119.34,62.69,117.68,57.58,113.13,53.71Zm-3.39-6.82a5.79,5.79,0,0,1-4.28,1.78v0H95.09V36.55h10.37v.05a6,6,0,0,1,4.28,10.29Z"/><path class="cls-1" d="M289.68,69.12a20.35,20.35,0,0,0,20.39-20.35,20.38,20.38,0,0,0-40.75,0,20.35,20.35,0,0,0,20.36,20.35Zm-8.64-29a12.22,12.22,0,0,1,20.86,8.64A12.22,12.22,0,1,1,281,40.12Z"/><path class="cls-2" d="M289.68,61A12.22,12.22,0,0,0,301.9,48.76,12.22,12.22,0,1,0,281,57.4,11.77,11.77,0,0,0,289.68,61Z"/><path class="cls-4" d="M259.9,53.6c4-2.67,6.56-6.82,6.56-11.08a14.2,14.2,0,0,0-14.23-14.24H233.68V69.07h8.86V56.28h5.11l5.07,0v0c3.24,2.51,4.62,8.82,4.62,12.79h8.78C266.11,62.58,264.44,57.47,259.9,53.6Zm-3.4-6.82a5.8,5.8,0,0,1-4.27,1.77v0H241.85V36.43h10.38v.06a6,6,0,0,1,4.27,10.29Z"/></g></g></svg>