<?xml version="1.0" encoding="UTF-8" standalone="no"?>
<!-- Created with Inkscape (http://www.inkscape.org/) -->

<svg
   width="512"
   height="512"
   viewBox="0 0 135.46666 135.46667"
   version="1.1"
   id="svg5"
   inkscape:version="1.1 (c68e22c387, 2021-05-23)"
   sodipodi:docname="Runprop.svg"
   xmlns:inkscape="http://www.inkscape.org/namespaces/inkscape"
   xmlns:sodipodi="http://sodipodi.sourceforge.net/DTD/sodipodi-0.dtd"
   xmlns="http://www.w3.org/2000/svg"
   xmlns:svg="http://www.w3.org/2000/svg">
  <sodipodi:namedview
     id="namedview7"
     pagecolor="#505050"
     bordercolor="#eeeeee"
     borderopacity="1"
     inkscape:pageshadow="0"
     inkscape:pageopacity="0"
     inkscape:pagecheckerboard="0"
     inkscape:document-units="mm"
     showgrid="false"
     units="px"
     inkscape:zoom="0.74118967"
     inkscape:cx="377.09646"
     inkscape:cy="255.67005"
     inkscape:window-width="1920"
     inkscape:window-height="1017"
     inkscape:window-x="-8"
     inkscape:window-y="-8"
     inkscape:window-maximized="1"
     inkscape:current-layer="layer1" />
  <defs
     id="defs2" />
  <g
     inkscape:label="Capa 1"
     inkscape:groupmode="layer"
     id="layer1">
    <g
       id="g928"
       transform="translate(-0.34681195,3.3000357)"
       style="fill:#1b1b1b;fill-opacity:1">
      <path
         class="cls-1"
         d="m 61.691092,68.721472 7.229757,5.832139 A 0.83016026,0.83016026 0 0 0 70.108297,74.4065 l 5.632473,-7.376867 a 0.83541443,0.83541443 0 0 0 -0.141788,-1.155919 l -7.224495,-5.847902 a 0.83541443,0.83541443 0 0 0 -1.19269,0.141868 l -5.627231,7.397883 a 0.83541443,0.83541443 0 0 0 0.136626,1.155919 z"
         id="path6"
         style="fill:#1b1b1b;stroke-width:0.525417;fill-opacity:1" />
      <path
         class="cls-2"
         d="m 70.145074,79.728977 v 0 L 61.044823,72.373126 59.7418,71.322291 a 0.83541443,0.83541443 0 0 0 -1.182205,0.131343 l -9.793783,12.462913 a 0.83016026,0.83016026 0 0 0 0.05779,1.098123 4.6499483,4.6499483 0 0 0 3.278607,1.350324 h 23.880239 a 0.83541443,0.83541443 0 0 0 0.525411,-1.481678 z"
         id="path8"
         style="fill:#1b1b1b;stroke-width:0.525417;fill-opacity:1" />
      <path
         class="cls-2"
         d="m 72.735373,77.664084 10.508364,8.506517 a 0.8669395,0.8669395 0 0 0 0.525412,0.194413 h 0.288978 A 4.670965,4.670965 0 0 0 88.7291,81.694051 v -22.34078 a 4.6026607,4.6026607 0 0 0 -0.194413,-1.318799 0.83541443,0.83541443 0 0 0 -1.439628,-0.294233 l -7.355857,9.362947 -7.145677,9.404979 a 0.83541443,0.83541443 0 0 0 0.141788,1.155919 z"
         id="path10"
         style="fill:#1b1b1b;stroke-width:0.525417;fill-opacity:1" />
      <path
         class="cls-2"
         d="m 57.54555,67.48674 7.150939,-9.399725 a 0.83541443,0.83541443 0 0 0 -0.136625,-1.150666 l -8.238559,-6.667552 -7.051112,5.369769 a 4.6762191,4.6762191 0 0 0 -1.838959,3.714705 v 18.605047 a 0.83541443,0.83541443 0 0 0 1.492194,0.525418 z"
         id="path12"
         style="fill:#1b1b1b;stroke-width:0.525417;fill-opacity:1" />
      <path
         class="cls-2"
         d="m 67.150182,54.866203 v 0 l 10.403275,8.406686 a 0.82490608,0.82490608 0 0 0 1.176942,-0.131363 l 6.23146,-7.9233 a 0.83016026,0.83016026 0 0 0 -0.14715,-1.155921 L 70.922666,43.459373 a 4.6657109,4.6657109 0 0 0 -5.664008,0 l -5.43808,4.145546 a 0.83016026,0.83016026 0 0 0 0,1.308292 z"
         id="path14"
         style="fill:#1b1b1b;stroke-width:0.525417;fill-opacity:1" />
    </g>
  </g>
</svg>
